<svg width="613" height="899" viewBox="0 0 613 899" fill="none" xmlns="http://www.w3.org/2000/svg">
<path d="M114.472 42.562C127.329 22.562 123.758 13.991 145.901 11.848C168.044 9.70511 172.33 11.1337 178.044 7.5623C183.758 3.9909 198.758 6.1337 201.615 6.1337C204.472 6.1337 220.901 6.13371 225.901 8.99081C230.901 11.8479 238.044 21.1338 241.615 21.8478C245.186 22.5621 262.329 23.9906 267.329 28.9906C272.329 33.9906 281.615 56.1336 282.329 62.5616C283.043 68.9902 283.758 96.8476 283.758 96.8476C283.758 96.8476 303.758 112.562 307.329 121.848C310.9 131.133 325.9 152.562 323.758 156.134C321.615 159.705 313.758 162.562 313.758 162.562C313.758 162.562 313.043 168.991 316.615 168.991C320.186 168.991 330.186 174.705 333.758 184.705C337.329 194.705 330.901 218.276 330.901 218.276L321.615 223.99C321.615 223.99 327.329 215.419 327.329 207.561C327.329 199.704 322.329 191.847 319.472 188.99C316.615 186.133 310.901 184.704 310.901 184.704C310.901 184.704 320.901 210.418 320.901 216.847C320.901 223.276 324.672 234.241 324.167 240.05C323.662 245.859 321.642 252.677 320.884 254.192C320.126 255.708 316.843 261.011 316.843 261.011C316.843 261.011 314.823 262.526 314.823 264.294C314.823 266.062 315.328 270.355 315.328 270.355C315.328 270.355 315.328 273.133 315.076 275.153C314.823 277.173 313.055 284.749 313.56 288.285C314.065 291.821 314.318 308.488 313.308 317.579C312.298 326.67 304.974 350.409 303.206 355.46C301.438 360.511 296.64 376.421 296.135 378.188C295.63 379.956 294.367 383.491 294.367 383.491L307.752 389.047C307.752 389.047 309.267 386.269 310.53 385.007C311.793 383.744 314.57 382.481 317.348 382.986C320.126 383.491 325.177 387.784 326.692 388.795C328.207 389.805 333.006 394.35 333.006 396.118C333.006 397.886 334.268 401.927 334.268 401.927L343.612 405.967C343.612 405.967 341.844 397.633 343.107 394.35C344.37 391.067 347.148 387.532 347.148 387.532L353.209 387.027C353.209 387.027 356.492 388.794 358.765 392.33C361.037 395.865 363.31 399.401 363.31 399.401C363.31 399.401 364.825 401.674 368.866 408.492C372.907 415.311 374.927 420.614 374.927 420.614L457.254 459C457.254 459 456.496 462.031 458.012 462.031C459.527 462.031 460.789 459.758 461.8 460.516C462.81 461.273 464.578 464.051 464.578 464.051L467.861 462.536L607.26 528.701L607.008 539.813L375.178 427.943C375.178 427.943 376.188 434.256 376.946 437.287C377.703 440.317 378.714 444.105 378.714 445.873C378.714 447.641 377.956 450.419 377.956 450.419C377.956 450.419 382.502 447.388 398.159 455.217C413.816 463.046 431.747 475.925 437.302 480.723C442.858 485.521 448.414 495.118 449.929 498.401C451.444 501.684 465.334 530.473 468.617 544.868C471.9 559.263 474.173 572.647 475.183 581.991C476.193 591.335 474.173 608.508 475.436 616.841C476.698 625.175 486.295 678.713 487.558 690.33C488.82 701.947 495.891 743.616 494.124 754.98C492.356 766.344 490.335 782.254 490.083 786.042C489.83 789.83 491.598 788.315 491.346 792.355C491.093 796.396 490.083 797.659 490.335 800.689C490.588 803.72 489.325 815.841 490.083 818.114C490.841 820.387 492.861 825.943 492.608 828.216C492.356 830.489 489.83 834.277 492.103 836.55C494.376 838.823 500.942 843.369 503.215 848.167C505.488 852.965 516.6 892.614 516.6 892.614H72.3902C72.3902 892.614 65.8242 864.077 63.8039 857.259C61.7836 850.441 53.1969 821.651 50.4189 808.772C47.641 795.893 41.075 733.011 39.8119 727.455C38.5492 721.899 30.7205 692.605 25.9219 677.452C21.1237 662.3 13.7999 647.147 11.2749 630.985C8.74951 614.823 4.45641 580.73 5.71911 571.386C6.98181 562.042 5.21403 535.273 16.8311 519.111C28.4482 502.949 47.6411 499.918 49.9131 499.918C52.1859 499.918 64.5601 491.079 65.8231 490.827C67.0858 490.574 77.1871 487.544 78.9551 486.281C80.7229 485.018 94.8651 470.876 97.8951 469.613C100.926 468.35 105.976 467.34 109.512 467.845C113.048 468.35 116.331 466.582 118.856 466.582C121.381 466.582 126.937 466.835 126.937 466.835C126.937 466.835 127.19 471.128 130.473 468.855C133.756 466.583 135.018 466.583 134.513 463.552C134.008 460.522 131.23 460.522 131.483 458.501C131.735 456.481 129.463 454.713 129.463 452.945C129.463 451.178 131.483 450.168 131.988 448.4C132.493 446.632 131.988 444.864 130.473 442.339C128.958 439.813 127.19 436.278 128.452 434.763C129.715 433.248 134.513 430.217 134.513 430.217C134.513 430.217 135.776 431.48 136.029 429.712C136.281 427.944 135.776 426.176 133.251 418.853C130.725 411.529 124.159 392.084 122.897 386.781C121.634 381.478 120.119 376.174 120.119 376.174C120.119 376.174 119.614 377.942 117.088 377.689C114.563 377.437 110.017 369.103 110.017 369.103C110.017 369.103 107.744 372.133 107.997 374.406C108.249 376.679 107.492 378.699 107.492 378.699C107.492 378.699 105.471 376.174 105.219 374.406C104.966 372.638 104.714 369.86 105.219 367.588C105.724 365.315 105.219 358.496 105.219 357.486C105.219 356.475 102.694 350.667 102.694 350.667C102.694 350.667 101.178 349.404 100.421 350.667C99.6631 351.93 97.6428 352.687 97.6428 352.687C97.6428 352.687 100.421 347.889 97.1378 346.879C93.8548 345.869 91.3294 346.374 91.3294 346.374L90.8243 343.849C90.8243 343.849 88.5515 341.071 88.2989 340.06C88.0463 339.05 89.3091 336.777 90.3192 336.777C91.3294 336.777 93.3497 333.747 91.3294 332.484C89.3091 331.222 79.4604 323.898 76.6824 318.847C73.9045 313.796 71.3791 298.139 71.6316 295.108C71.8841 292.078 68.0961 285.259 67.8435 281.976C67.5909 278.693 66.5808 263.036 67.8435 261.015C69.1062 258.995 70.874 257.985 70.874 257.985C70.874 257.985 67.591 248.641 67.3385 243.59C67.0859 238.539 70.874 231.468 71.1266 228.438C71.3791 225.407 68.0961 220.862 67.5911 218.589C67.086 216.316 66.3284 210.76 67.086 208.487C67.8436 206.214 68.8538 202.173 68.0962 200.153C67.3386 198.133 65.5708 195.607 66.3284 193.587C67.086 191.567 68.6012 185.758 68.6012 185.758L70.874 184.496C73.1468 183.233 73.6519 179.445 71.3791 177.93C69.1063 176.414 63.0453 174.141 62.5403 169.091C62.0352 164.04 64.3081 151.413 64.5606 148.635C64.8131 145.857 66.0758 140.554 66.5809 134.745C67.086 128.936 66.5809 116.31 68.6012 110.249C70.6215 104.188 73.3994 93.5808 75.1672 89.7928C76.935 86.0047 82.4908 79.1858 84.7636 76.9138C87.0364 74.641 93.0974 70.6003 93.3499 68.58C93.6024 66.5597 98.6532 59.9937 100.421 58.731C102.189 57.4683 102.441 59.9937 105.472 55.1955C108.502 50.3973 114.475 42.5655 114.475 42.5655L114.472 42.562Z" stroke="#CE9797"/>
<path d="M138.392 18.982C133.392 19.3392 138.771 21.8615 126.986 22.5758C126.42 22.6101 125.874 22.6556 125.33 22.7008C122.522 27.4735 120.021 33.9668 114.486 42.5758C114.486 42.5758 108.485 50.4026 105.455 55.2008C102.424 59.999 102.191 57.4694 100.423 58.732C98.6556 59.9947 93.6134 66.5554 93.3609 68.5758C93.1084 70.5961 87.04 74.6467 84.7671 76.9196C82.4943 79.1924 76.9411 86.0065 75.1733 89.7946C73.4055 93.5827 70.6311 104.172 68.6108 110.233C66.5905 116.294 67.0846 128.925 66.5796 134.733C66.0745 140.541 64.8009 145.861 64.5484 148.639C64.2959 151.417 62.0433 164.026 62.5484 169.077C63.0535 174.127 69.1193 176.405 71.3922 177.92C73.665 179.436 73.1338 183.22 70.861 184.483L68.611 185.764C68.611 185.764 67.0874 191.556 66.3298 193.577C65.5721 195.597 67.3222 198.119 68.0798 200.139C68.8374 202.159 67.8374 206.21 67.0798 208.483C66.3222 210.756 67.0748 216.304 67.5798 218.577C68.0848 220.85 71.3636 225.39 71.111 228.421C70.8584 231.451 67.0772 238.526 67.3298 243.577C67.5629 248.24 70.2742 256.265 70.7048 257.515C75.5162 255.728 78.1857 255.849 82.3298 257.921C88.7584 261.135 94.8338 267.577 95.5488 270.077C96.263 272.577 98.7676 279.702 98.7676 279.702C98.7676 279.702 103.759 275.072 104.83 276.858C105.901 278.644 108.393 278.988 110.893 277.202C113.393 275.416 115.553 262.555 118.768 253.983C121.982 245.412 126.25 240.412 130.893 233.983C135.535 227.554 136.96 223.996 140.174 221.139C143.388 218.282 136.616 218.634 134.83 220.42C133.044 222.206 134.107 218.277 135.892 215.42C137.678 212.563 143.406 205.416 145.549 202.201C147.691 198.987 149.817 192.907 150.174 190.763C150.531 188.62 151.25 181.12 148.392 185.763C145.535 190.406 141.259 201.848 137.33 205.419C133.402 208.991 126.964 212.214 130.893 206.857C134.822 201.499 145.549 183.982 145.549 183.982C145.549 183.982 150.553 177.205 146.268 180.419C141.982 183.633 136.978 193.29 133.049 195.075C129.12 196.861 130.196 188.267 133.767 186.481C137.339 184.696 148.758 176.133 142.33 177.919C135.901 179.705 123.392 184.356 123.392 184.356C123.392 184.356 127.687 179.004 129.829 177.575C131.972 176.147 143.057 171.138 136.986 171.138C130.914 171.138 127.334 170.767 130.548 168.981C133.762 167.196 140.2 162.914 134.486 164.7C128.771 166.486 122.682 170.79 121.611 167.575C120.539 164.361 121.963 163.285 128.392 161.856C134.82 160.428 144.463 159.348 140.892 157.919C137.32 156.49 128.053 156.848 126.267 155.419C124.481 153.99 125.195 150.053 128.767 151.481C132.338 152.91 135.178 153.99 138.392 155.419C141.606 156.848 147.673 160.071 145.173 156.856C142.673 153.642 138.039 149.7 136.611 144.7C135.182 139.7 141.981 144.348 143.767 147.919C145.552 151.491 151.262 158.999 153.048 159.357C154.834 159.714 153.03 156.496 150.173 151.138C147.316 145.781 144.829 142.196 144.829 138.982C144.829 135.768 143.767 136.857 143.767 139.357C143.767 141.857 140.552 140.773 138.767 137.201C136.981 133.63 128.03 132.201 132.673 132.201C137.316 132.201 138.048 126.862 140.548 130.076C143.048 133.291 145.191 139.357 145.548 134.357C145.905 129.357 149.476 124.353 150.548 128.639C151.619 132.924 154.467 141.835 154.11 135.764C153.753 129.692 155.901 124.697 157.329 128.982C158.758 133.268 160.905 133.634 160.548 130.42C160.191 127.206 158.405 111.496 158.048 113.639C157.688 115.779 152.328 120.419 152.328 120.419L156.609 109.357C156.609 109.357 149.123 109.696 153.765 103.982C158.408 98.2677 157.698 95.7811 161.984 93.638C166.27 91.4951 165.904 94.7094 173.046 88.638C180.189 82.5666 186.247 81.1291 190.89 77.2C195.533 73.2714 198.399 75.4098 199.828 71.4812C201.256 67.5526 193.055 66.8473 191.984 62.9187C190.912 58.9901 190.89 53.9946 188.39 53.6375C185.89 53.2803 185.194 53.9901 183.765 55.4187C182.336 56.8473 179.461 56.8339 178.39 53.2625C177.319 49.6911 175.537 44.6955 171.609 41.4815C167.68 38.2672 162.319 30.7855 158.39 29.3565C154.46 27.9265 154.83 30.4065 157.33 32.1965C159.83 33.9822 173.392 45.0495 168.392 43.9775C163.392 42.9061 149.477 33.6385 153.048 36.8525C152.467 36.7498 151.677 36.7498 150.548 36.8525C142.691 37.5667 136.258 38.2855 134.829 37.5712C133.4 36.8569 136.61 34.6962 129.11 37.1962C121.61 39.6962 117.672 41.1337 117.672 41.1337C117.672 41.1337 122.324 37.5578 124.11 35.4149C125.895 33.2721 124.114 28.6381 129.828 26.8524C135.543 25.0667 143.39 18.6203 138.391 18.9774L138.392 18.982ZM154.204 37.92C158.409 41.7606 167.119 49.97 164.485 48.982C161.628 47.9106 149.114 41.4909 152.329 45.4195C154.404 47.955 156.605 49.8975 158.017 52.107C157.717 51.7287 156.986 51.378 155.548 51.1383C149.119 50.0669 142.695 48.6204 146.267 48.2633C149.838 47.9061 149.834 44.6963 148.048 43.9821C146.262 43.2678 146.61 41.8393 149.11 41.4821C150.673 41.2588 153.915 39.2415 154.204 37.9196V37.92ZM158.204 52.389C158.884 53.5217 159.368 54.7365 159.485 56.139C159.842 60.4247 159.119 61.8444 160.548 67.201C161.976 72.5581 161.981 77.1921 158.767 73.2635C155.552 69.3349 150.552 63.9956 151.267 66.1385C151.981 68.2814 153.039 74.7189 149.11 72.576C145.182 70.4331 138.414 67.2099 139.485 71.1385C140.557 75.0671 144.106 83.2725 140.892 79.701C137.677 76.1296 133.043 68.982 127.33 68.982C121.615 68.982 126.959 71.4775 130.173 73.2632C133.388 75.0489 136.602 79.357 137.673 81.857C138.745 84.357 134.839 83.6293 131.267 82.2008C127.696 80.7722 124.486 81.4954 126.986 83.6383C129.486 85.7811 127.343 88.6428 124.486 89.3571C121.629 90.0713 119.821 90.4062 123.392 95.7633C126.964 101.12 132.33 110.767 132.33 113.982C132.33 117.197 130.178 122.558 128.392 117.201C126.606 111.844 124.816 110.429 120.173 106.857C115.531 103.286 118.41 101.495 118.767 98.6383C119.124 95.7812 117.7 96.1338 114.486 92.9195C111.272 89.7052 98.7449 85.0534 102.674 83.982C106.603 82.9106 117.687 82.2141 112.33 79.357C106.973 76.4998 103.058 73.2811 106.986 73.6382C110.915 73.9953 115.192 74.3391 118.048 73.9819C120.905 73.6248 124.464 69.3435 118.392 69.7007C112.321 70.0579 110.91 72.5668 108.767 71.1382C106.624 69.7096 104.838 66.482 111.267 66.482C117.696 66.482 131.629 67.2097 124.486 63.6382C117.346 60.0682 109.836 62.1982 109.836 59.6982C109.836 57.1982 110.916 56.1446 116.274 57.5732C121.631 59.0018 124.836 58.9973 127.336 61.8544C129.836 64.7115 131.617 62.908 131.617 61.4794C131.617 60.0508 134.13 60.4258 138.773 61.8544C143.416 63.283 150.193 67.1892 147.335 63.2606C144.478 59.332 140.554 55.774 145.554 57.9168C150.554 60.0597 158.777 65.0463 154.492 60.7606C150.206 56.4749 148.045 52.5508 151.617 53.9794C154.184 55.0062 158.423 53.6363 158.211 52.3856L158.204 52.389Z" fill="#CE9797"/>
<path d="M212.362 7.358C211.255 7.33498 210.366 7.44282 209.831 7.57675C208.402 7.93389 208.058 8.27318 206.987 9.70175C205.916 11.1304 208.768 10.4205 208.768 10.4205C208.768 10.4205 214.125 6.8625 211.268 10.0768C208.411 13.2911 204.125 17.9116 208.768 16.483C213.411 15.0544 216.987 10.05 214.487 13.2642C211.987 16.4785 211.612 19.0053 214.112 17.5767C216.612 16.1481 221.621 11.8446 220.549 14.7017C219.478 17.5588 220.532 18.9963 217.674 21.1392C214.817 23.2821 215.179 22.9294 213.393 24.358C211.608 25.7866 213.393 26.1259 210.893 26.483C208.393 26.8401 206.965 26.1392 205.893 23.6392C204.822 21.1391 201.983 18.9919 201.268 20.4204C200.554 21.849 198.768 19.3579 198.768 19.3579C198.768 19.3579 198.126 18.7019 197.268 18.0767C198.691 15.8075 200.152 14.2882 200.674 13.1392C201.306 11.7502 201.687 7.58376 200.424 9.98296C199.398 11.9326 196.96 15.6959 195.924 17.2955C195.213 16.9612 194.511 16.8119 193.987 17.1392C193.83 16.729 193.746 16.2494 193.862 15.6704C194.241 13.7764 194.373 9.11501 193.237 11.5142C192.231 13.6371 191.8 18.3953 191.018 20.608C190.205 21.2291 189.307 21.7962 188.393 22.2955C188.076 21.9867 187.945 21.3684 188.174 20.358C188.806 17.5801 187.679 15.9357 187.174 14.4205C186.669 12.9053 185.019 12.64 184.893 15.6705C184.783 18.3083 186.01 21.6084 186.081 23.4205C185.2 23.7804 184.477 23.983 184.112 23.983C182.683 23.983 182.674 20.7642 182.674 20.7642C182.674 20.7642 182.681 20.4667 182.456 20.5142C182.544 17.7087 181.987 14.6704 181.987 14.6704C181.987 14.6704 179.074 15.1763 179.706 17.7016C180.055 19.0995 180.233 21.5855 180.174 23.5141C180.174 23.5245 180.175 23.535 180.174 23.5453C179.484 24.5334 178.969 24.7574 178.424 24.5453C177.409 22.6796 176.213 19.7342 176.299 18.7015C176.426 17.1863 171.643 15.6703 171.643 15.6703C171.643 15.6703 172.634 16.6749 173.518 19.3265C173.728 19.9552 173.821 20.5671 173.8 21.1077C172.305 20.3802 170.783 20.1896 169.331 20.139C166.365 17.3188 162.101 13.5612 163.175 14.5452C164.253 15.5335 165.756 18.038 166.956 20.139C166.053 20.1644 165.199 20.1782 164.487 20.0765C161.987 19.7193 156.603 19.3443 160.174 22.2015C163.746 25.0586 166.987 30.0497 169.487 33.2635C171.987 36.4778 173.764 40.0671 175.549 43.6385C177.335 47.2099 178.768 48.9912 178.768 45.4197C178.768 41.8483 176.969 37.2188 179.112 40.0759C181.255 42.933 182.34 47.567 183.768 43.6384C185.197 39.7098 185.174 36.1384 185.174 38.6384C185.174 41.1384 186.268 48.6384 186.268 48.6384C186.268 48.6384 188.04 41.4777 189.112 38.2634C190.183 35.0491 193.402 33.2634 192.331 35.7634C191.259 38.2634 191.25 42.933 193.393 40.0759C195.536 37.2188 199.103 34.3571 197.674 36.8571C196.246 39.3571 198.768 39.7009 198.768 39.7009C198.768 39.7009 201.969 38.9999 199.112 41.857C196.255 44.7141 193.768 48.982 193.768 48.982C193.768 48.982 190.532 52.9062 192.674 53.2633C194.817 53.6204 201.264 48.6427 200.549 51.857C199.835 55.0713 198.389 57.5491 200.174 60.7633C201.96 63.9776 209.116 70.7763 207.331 67.9195C205.545 65.0624 202.344 56.8525 204.487 58.6383C206.63 60.424 204.817 65.4105 207.674 66.482C210.532 67.5534 208.058 64.3526 209.487 63.6383C210.915 62.924 210.898 65.4284 214.112 66.857C217.326 68.2856 223.045 68.6472 224.831 67.5758C226.617 66.5044 226.259 67.2142 224.831 69.357C223.402 71.4998 221.268 74.3436 218.768 72.2008C216.268 70.0579 211.987 66.4865 211.987 69.7008C211.987 72.9151 209.103 73.9865 205.175 72.2008C201.246 70.4151 204.465 70.4329 200.893 75.0758C197.322 79.7187 196.608 81.482 193.393 83.982C190.179 86.482 186.96 92.2097 192.675 88.6382C198.389 85.0668 206.961 75.7672 205.175 78.982C203.389 82.1963 204.826 83.9998 206.612 81.857C208.398 79.7141 214.474 75.0624 212.331 77.9195C210.188 80.7767 203.416 87.1918 206.987 85.7633C210.559 84.3347 218.402 73.6423 217.331 76.8571C216.26 80.0714 218.769 80.0535 221.269 78.9821C223.769 77.9107 228.412 77.2098 228.769 78.6384C229.126 80.067 228.773 83.2813 231.987 81.1384C235.202 78.9955 236.961 77.2009 237.675 79.7009C238.389 82.2009 240.55 82.9106 243.05 81.482C245.55 80.0534 246.987 80.0759 246.987 80.0759C246.987 80.0759 250.894 86.1473 253.394 85.0759C255.894 84.0045 255.894 88.982 255.894 88.982C255.894 88.982 260.554 90.4106 261.269 88.982C261.983 87.5534 265.55 86.5044 263.05 90.0759C260.55 93.6473 261.983 96.1205 263.769 95.7634C265.554 95.4062 269.818 93.6295 265.175 97.2009C260.532 100.772 253.389 106.487 255.175 102.201C256.961 97.9152 259.836 93.9866 255.55 94.7009C251.264 95.4151 250.554 95.0759 251.269 92.5759C251.983 90.0759 252.336 83.6295 250.55 87.2009C248.764 90.7723 243.773 93.6384 244.487 91.1384C245.202 88.6384 245.193 87.1964 243.05 88.9822C240.907 90.7679 234.487 88.2679 234.487 86.4822C234.487 84.6964 234.469 80.4063 231.612 85.7634C228.755 91.1205 221.97 92.1964 224.112 88.9822C226.255 85.7679 222.675 78.2682 220.175 83.9822C217.675 89.6965 211.965 92.9152 213.394 89.701C214.822 86.4867 213.746 81.8572 210.175 86.8572C206.603 91.8572 199.117 95.0715 199.831 91.8572C200.545 88.6429 196.974 87.1965 194.831 91.4822C192.688 95.7679 189.465 100.429 188.393 96.8572C187.322 93.2858 188.045 91.4867 187.331 97.201C186.617 102.915 185.197 98.634 183.768 107.92C182.34 117.206 180.898 124.715 184.112 121.858C187.326 119.001 190.184 115.769 189.112 121.483C188.041 127.197 186.63 127.568 186.987 133.639C187.206 137.365 187.687 140.666 188.362 143.42C188.255 143.253 188.164 143.083 188.05 142.92C185.55 139.349 186.537 145.111 187.8 147.889C189.062 150.667 188.289 153.693 186.268 151.42C184.248 149.147 181.477 143.315 182.487 147.608C183.497 151.901 186.775 161.018 182.987 154.451C179.199 147.885 172.638 134.749 173.143 139.295C173.648 143.841 179.956 153.17 179.956 153.17C179.956 153.17 172.128 144.346 173.643 148.639C175.159 152.932 179.731 159.245 177.206 157.983C174.681 156.72 172.144 154.192 175.175 158.233C178.205 162.274 182.759 163.278 177.456 165.046C172.153 166.813 163.04 168.574 167.081 168.827C171.122 169.079 184.762 167.309 179.206 169.077C173.65 170.845 156.72 173.632 161.518 174.389C166.316 175.147 177.201 172.371 180.737 171.108C184.272 169.845 203.207 164.296 196.893 167.327C190.58 170.357 188.81 170.866 181.487 173.139C174.163 175.412 156.468 178.926 164.549 178.421C172.63 177.915 182.498 177.662 187.549 175.389C192.6 173.117 206.235 169.604 200.174 173.139C194.113 176.675 192.104 177.171 183.518 180.202C174.932 183.232 156.743 192.569 162.299 190.296C167.855 188.023 180.737 187.009 183.768 184.483C186.798 181.958 199.673 176.164 196.643 179.952C193.613 183.74 186.28 190.549 181.987 193.327C177.694 196.105 168.85 203.441 173.143 201.421C177.436 199.401 188.287 190.543 192.581 187.765C196.874 184.987 199.428 179.192 202.206 177.171C204.984 175.151 210.01 173.385 207.737 176.921C205.465 180.456 206.222 180.957 207.737 180.452C209.253 179.947 210.264 179.961 204.456 185.265C198.648 190.568 196.384 194.596 191.081 195.859C185.778 197.121 182.763 199.906 180.237 201.421C177.712 202.936 171.9 207.728 177.456 205.202C183.012 202.677 188.567 201.905 193.112 200.39C197.658 198.875 204.201 196.608 207.737 193.577C211.272 190.547 214.564 182.966 210.018 187.765C205.472 192.563 201.673 192.077 204.956 189.046C208.239 186.016 214.81 179.432 213.799 181.452C212.789 183.473 212.303 189.805 215.081 185.765C217.859 181.724 229.203 169.082 226.425 174.89C223.647 180.698 219.354 184.508 217.081 188.296C214.808 192.084 207.746 200.905 210.018 199.39C212.291 197.875 224.663 184.498 222.643 189.296C220.623 194.094 226.676 189.784 223.393 194.077C220.11 198.37 217.33 201.4 214.3 203.421C211.269 205.441 206.486 213.292 212.8 207.483C219.113 201.675 228.975 193.345 230.238 191.577C231.5 189.809 232.755 189.537 230.988 193.577C229.22 197.618 230.727 203.677 231.738 206.202C232.748 208.728 235.519 206.728 235.519 204.202C235.519 201.677 238.05 190.546 238.05 190.546C238.05 190.546 238.547 187.782 238.8 192.327C239.052 196.873 237.563 199.643 239.331 202.421C241.099 205.199 244.875 210.248 243.612 205.703C242.35 201.157 241.834 194.611 241.581 191.328C241.329 188.045 243.61 187.532 243.862 192.078C244.115 196.623 248.921 200.146 252.456 202.672C255.992 205.197 266.839 204.2 269.112 204.453C271.385 204.705 273.144 202.929 266.831 202.172C260.517 201.414 252.94 199.155 251.425 194.609C249.91 190.063 249.42 189.543 249.925 183.734C250.43 177.926 250.165 177.676 251.175 174.14C252.185 170.605 253.954 169.346 254.206 167.578C254.459 165.81 252.698 162.276 250.425 164.297C248.152 166.317 243.596 168.588 242.081 167.578C240.566 166.568 241.328 162.521 238.55 165.047C235.772 167.572 233.523 169.343 229.987 167.828C226.452 166.313 228.705 163.276 225.675 165.297C222.644 167.317 219.623 166.067 218.612 164.047C217.602 162.026 215.074 159.758 218.862 160.515C222.651 161.273 227.46 160.999 223.925 159.484C220.389 157.969 218.098 157.227 213.3 157.984C208.502 158.742 203.974 159.747 202.206 158.484C200.438 157.222 203.454 158.223 206.737 156.203C210.02 154.183 214.829 151.662 218.112 152.672C221.395 153.682 225.415 152.423 226.425 155.453C227.435 158.484 227.712 159.76 230.237 157.234C232.763 154.709 235.011 155.209 235.768 157.734C236.526 160.26 235.019 163.538 238.05 161.265C241.08 158.993 242.604 157.214 243.362 159.234C244.12 161.255 246.128 163.023 247.643 162.265C249.158 161.508 252.948 159.498 253.706 161.265C254.463 163.033 258.266 161.014 258.518 164.297C258.771 167.58 259.508 173.143 260.518 172.89C261.528 172.638 264.049 169.091 264.049 167.828C264.049 166.565 264.565 165.308 266.081 167.328C267.596 169.348 269.118 168.576 271.643 171.859C274.169 175.142 283.016 178.423 286.299 184.484C289.582 190.545 292.604 194.592 293.362 199.39C294.119 204.188 297.385 215.311 298.143 210.765C298.901 206.219 295.89 202.16 296.143 197.109C296.395 192.058 298.15 192.08 294.362 188.797C290.574 185.514 288.564 181.457 287.049 177.922C285.534 174.386 285.269 170.35 288.299 174.39C291.33 178.431 298.922 186.527 302.205 191.578C305.488 196.629 305.732 194.856 309.268 201.422C312.803 207.988 315.075 210.775 315.58 216.078C316.085 221.382 316.856 226.923 317.361 229.953C317.866 232.984 318.122 239.039 317.111 236.766C316.101 234.493 315.069 230.697 313.049 228.172C311.029 225.647 307.757 224.157 305.736 225.672C303.716 227.187 301.676 228.435 301.424 227.172C301.171 225.909 303.212 222.894 299.424 225.672C295.636 228.45 293.353 227.17 291.08 230.453C288.807 233.736 287.791 233.497 288.549 232.234C289.306 230.972 289.064 226.928 287.549 229.453C286.034 231.979 283.523 237.538 283.018 235.266C282.513 232.993 284.254 227.17 282.486 230.453C280.719 233.736 275.926 237.279 275.674 239.047C275.421 240.815 275.414 244.609 276.424 244.609C277.434 244.609 280.724 238.279 281.986 240.047C283.249 241.815 286.031 245.372 287.799 244.109C289.567 242.847 297.896 237.037 300.674 238.047C303.452 239.057 314.068 238.048 315.33 241.078C316.593 244.109 318.106 248.384 318.611 252.172C318.864 254.066 318.054 256.987 317.549 259.828C318.431 258.393 320.292 255.404 320.892 254.203C321.65 252.688 323.669 245.855 324.174 240.047C324.522 236.046 322.847 229.617 321.767 223.891L330.892 218.266C330.892 218.266 337.339 194.704 333.767 184.704C333.56 184.124 333.328 183.568 333.08 183.017C330.993 180.881 326.533 176.349 324.924 175.142C322.903 173.627 314.055 170.095 316.58 171.611C319.105 173.126 324.174 178.173 324.174 178.173C324.174 178.173 317.336 173.393 319.861 176.423C322.387 179.454 329.964 185.003 325.924 183.236C321.883 181.468 318.117 178.424 320.643 181.454C323.168 184.485 329.464 189.29 325.424 187.017C321.383 184.744 318.35 182.47 316.33 180.954C314.31 179.439 321.892 179.714 309.517 175.673C297.143 171.633 293.106 167.075 293.611 170.611C294.116 174.146 296.884 177.165 294.611 174.892C292.339 172.619 290.078 169.845 290.33 171.361C290.583 172.876 291.095 173.121 289.58 172.111C288.065 171.101 283.768 169.348 283.768 170.611C283.768 171.873 286.796 176.672 284.018 173.642C281.24 170.612 275.676 169.347 272.393 167.579C269.11 165.812 264.076 163.296 267.612 163.548C271.147 163.801 276.172 165.546 279.456 165.798C282.739 166.051 290.568 167.569 288.799 165.548C287.032 163.528 293.625 162.764 295.393 163.017C297.161 163.27 296.903 161.025 295.893 160.267C294.883 159.509 296.631 158.723 300.924 159.986C305.218 161.248 309.019 162.014 312.049 162.267C312.897 162.338 313.64 162.405 314.268 162.392C314.656 162.243 315.251 162.015 316.331 161.517C316.458 161.205 316.452 160.814 316.331 160.267C315.826 157.994 313.576 157.993 317.112 157.236C318.998 156.832 320.434 157.723 321.956 158.142C322.713 157.513 323.348 156.842 323.768 156.142C323.948 155.842 323.969 155.394 323.924 154.861C323.744 154.889 323.424 154.955 323.424 154.955C323.424 154.955 322.396 155.195 322.143 149.892C322.138 149.787 322.093 149.611 322.081 149.486C318.303 141.401 309.893 128.521 307.331 121.861C306.252 119.056 303.654 115.666 300.581 112.298C297.121 112.616 293.512 113.518 290.081 114.298C284.525 115.561 277.453 119.098 274.675 120.361C271.897 121.624 264.575 127.156 262.05 128.923C259.524 130.691 261.03 126.417 266.081 123.892C271.132 121.367 283.503 115.061 285.019 113.798C286.534 112.535 285.03 111.015 277.706 114.298C270.383 117.581 263.548 121.612 266.831 118.329C270.114 115.046 278.449 108.224 282.237 106.204C286.026 104.184 290.315 106.475 288.8 107.485C287.285 108.496 286.798 110.261 290.081 107.735C292.338 105.999 293.508 105.312 293.206 104.985C293.069 104.837 292.62 104.783 291.831 104.704C289.306 104.452 288.55 103.173 288.55 103.173C288.55 103.173 288.973 102.465 289.456 101.611C288.75 100.998 288.064 100.405 287.456 99.8917C286.273 100.618 284.961 101.508 283.019 103.173C279.483 106.203 276.437 106.452 272.144 109.735C267.85 113.018 262.556 117.31 265.081 113.017C267.607 108.723 274.417 100.902 275.175 99.8917C275.933 98.8815 276.175 100.405 276.175 102.173C276.175 103.941 278.47 101.404 280.238 100.142C281.245 99.4223 282.971 98.5488 284.706 97.6417C284.499 97.4756 283.769 96.8604 283.769 96.8604C283.769 96.8604 283.046 69.0074 282.331 62.5794C281.79 57.7079 276.31 43.8254 271.519 35.2044C269.309 33.7907 267.246 32.6616 265.332 31.7044C261.796 29.9366 259.766 29.1968 256.988 29.9544C254.21 30.712 252.692 30.4628 254.207 32.7356C255.722 35.0084 261.045 39.7981 258.519 39.7981C255.994 39.7981 252.938 40.3083 251.676 39.2981C250.413 38.288 249.676 37.5135 249.676 34.7356C249.676 31.9577 250.685 29.9442 246.644 30.9544C242.604 31.9646 238.303 32.4671 238.051 31.2044C237.798 29.9417 240.084 27.4071 236.801 25.8919C233.518 24.3767 234.266 20.864 231.488 23.6419C228.71 26.4198 223.405 26.6554 222.394 28.4231C221.384 30.2331 221.374 31.2431 217.334 31.2431C213.294 31.2431 210.522 30.9931 210.522 30.9931C210.522 30.9931 212.044 30.2347 216.084 27.9619C220.125 25.6891 218.874 24.4172 221.147 22.6494C223.42 20.8816 223.398 19.108 226.428 20.1182C229.459 21.1284 229.986 19.3631 233.522 19.8682C237.057 20.3733 236.535 21.6418 238.303 22.3994C240.071 23.157 241.843 24.9172 244.116 23.1494C244.446 22.8924 244.867 22.6801 245.303 22.4619C243.696 22.2372 242.334 22.043 241.616 21.8994C239.99 21.5743 237.62 19.4553 235.053 16.9932C234.036 16.7745 231.272 16.1807 231.272 16.1807C228.772 15.1093 223.044 10.1093 219.116 8.6807C216.66 7.78784 214.211 7.43781 212.366 7.39951L212.362 7.358ZM224.772 116.388C226.185 116.205 228.12 119.081 227.709 120.107C227.204 121.37 227.947 122.375 229.209 120.607C230.472 118.839 228.72 123.365 227.709 125.638C226.699 127.911 230.718 125.387 232.991 122.357C235.263 119.326 234.274 121.36 234.022 124.138C233.769 126.916 231.503 129.699 230.241 132.982C228.978 136.265 231.252 137.005 233.272 134.732C235.292 132.459 237.819 129.94 239.334 130.951C240.85 131.961 237.053 136.013 237.053 136.013C237.053 136.013 240.317 133.476 242.084 130.951C243.852 128.425 245.876 131.449 244.866 134.732C243.855 138.015 247.414 133.228 251.959 127.419C256.505 121.611 252.691 130.714 251.428 132.482C250.165 134.25 250.425 137.03 256.991 132.232C263.557 127.434 255.732 136.504 253.459 140.544C251.187 144.585 254.471 141.059 259.522 136.513C264.573 131.967 260.277 139.808 259.772 141.576C259.267 143.343 257.768 147.366 261.303 143.326C264.839 139.285 264.063 142.576 263.053 145.607C262.043 148.637 257.001 151.904 255.991 153.419C254.98 154.934 251.442 154.439 253.209 149.388C254.977 144.337 250.693 150.899 249.178 152.919C247.663 154.94 246.905 150.665 249.178 144.857C251.451 139.048 244.867 148.631 241.584 152.419C238.301 156.207 240.843 148.387 243.116 142.325C245.388 136.264 239.557 147.378 236.022 151.419C232.486 155.46 236.023 145.345 239.053 140.294C242.084 135.243 234.024 144.6 230.741 148.388C227.458 152.176 231.496 143.319 234.022 137.763C236.547 132.207 228.956 142.816 226.178 146.857C223.4 150.897 227.691 138.793 229.459 132.732C231.227 126.671 223.669 144.074 221.397 147.357C219.124 150.64 221.395 139.55 224.678 132.732C225.487 131.051 226.033 129.964 226.397 129.326C226.138 129.635 225.815 129.979 225.428 130.201C223.66 131.211 224.413 130.707 225.928 126.919C227.443 123.131 226.441 121.852 225.178 122.357C223.915 122.862 217.099 135.246 215.584 140.045C214.069 144.843 213.569 137.007 215.084 131.451C216.599 125.895 216.345 122.874 218.365 118.076C218.365 118.076 219.613 118.086 219.865 117.076C220.118 116.066 220.618 116.819 220.365 120.607C220.113 124.395 222.665 119.349 223.928 117.076C224.165 116.65 224.445 116.431 224.772 116.388L224.772 116.388ZM310.897 184.7C310.897 184.7 316.634 186.124 319.491 188.981C322.351 191.841 327.341 199.721 327.341 207.581C327.341 215.128 322.195 223.132 321.778 223.769C321.302 221.227 320.903 218.832 320.903 216.863C320.903 210.434 310.903 184.707 310.903 184.707L310.897 184.7Z" fill="#CE9797"/>
<path d="M233.762 242.742C231.976 238.278 232.333 237.385 231.441 235.421C230.548 233.456 228.048 230.778 226.441 229.171C224.833 227.564 219.476 225.242 220.905 227.028C222.333 228.814 225.191 230.421 225.548 232.028C225.905 233.635 223.405 232.564 221.619 231.314C219.833 230.064 220.369 230.421 218.583 229.706C216.798 228.992 214.119 227.206 212.333 226.671C210.548 226.135 208.048 225.242 208.583 226.314C209.119 227.385 210.191 228.635 207.512 226.849C204.833 225.064 202.869 223.635 202.869 224.885C202.869 226.135 203.405 227.921 201.619 226.671C199.833 225.421 199.833 224.349 196.619 223.635C193.405 222.921 192.333 222.564 190.012 222.206C187.691 221.849 184.119 222.028 181.441 223.992C178.762 225.956 175.012 226.313 173.048 228.099C171.084 229.885 167.512 231.492 165.905 232.921C164.298 234.349 161.976 236.314 160.726 238.456C159.476 240.599 158.762 243.635 156.976 245.599C155.191 247.564 154.119 250.778 154.119 250.778C154.119 250.778 153.941 249.349 156.441 247.206C158.941 245.064 159.833 242.564 161.262 241.314C162.691 240.064 163.762 239.349 166.976 237.385C170.191 235.421 171.798 232.921 173.941 231.671C176.083 230.421 179.298 228.992 181.798 229.171C184.298 229.349 186.262 226.849 188.048 227.921C189.833 228.992 193.048 231.671 194.119 231.492C195.191 231.314 196.262 228.456 197.333 229.528C198.405 230.599 199.655 231.849 201.083 232.206C202.512 232.564 203.583 229.171 204.655 229.885C205.726 230.599 204.833 232.206 208.583 233.099C212.333 233.992 215.191 234.171 215.191 235.064C215.191 235.956 216.976 238.099 218.226 238.278C219.476 238.456 222.691 236.314 223.405 236.849C224.119 237.385 226.083 239.885 226.083 239.885C226.083 239.885 228.583 236.671 229.833 238.278C231.083 239.885 230.012 241.671 231.441 242.385C232.869 243.099 233.762 242.742 233.762 242.742V242.742Z" fill="#CE9797"/>
<path d="M199.022 252.482C196.143 252.527 193.41 252.826 191.803 253.451C188.589 254.701 183.223 257.031 181.615 258.638C180.008 260.245 178.571 262.036 177.678 263.107C176.778 264.187 177.328 265.957 176.078 264.707C174.828 263.457 174.475 259.35 174.296 260.957C174.118 262.564 175.734 266.859 174.484 266.145C173.234 265.43 170.913 261.506 170.734 263.113C170.555 264.72 169.997 266.497 172.14 267.926C174.283 269.354 175.546 270.77 175.546 270.77C175.546 270.77 175.712 272.377 175.89 273.27C176.069 274.163 177.52 275.069 178.234 274.176C178.948 273.283 182.493 271.497 183.921 270.426C185.35 269.355 188.055 267.033 188.234 267.926C188.413 268.819 187.685 272.203 188.578 273.988C189.471 275.774 192.145 279.162 192.859 279.52C193.573 279.877 196.962 280.774 198.39 280.238C199.819 279.703 203.037 279.167 204.109 277.738C205.18 276.31 205.725 274.002 205.546 272.395C205.368 270.787 204.662 270.412 204.484 272.02C204.305 273.627 204.47 275.238 202.328 276.488C200.185 277.738 201.627 278.287 198.234 278.645C194.841 279.002 194.636 278.993 192.671 277.207C190.707 275.421 189.828 275.078 189.828 274.363C189.828 273.649 190.707 272.756 191.421 273.113C192.136 273.47 193.39 274.162 194.64 274.519C195.89 274.877 196.439 274.877 196.796 275.769C197.154 276.662 198.221 278.81 198.578 277.738C198.935 276.667 199.814 276.493 200.171 274.707C200.529 272.921 201.796 270.613 201.796 270.613C201.796 270.613 203.033 270.43 203.39 271.145C203.747 271.859 204.484 272.225 204.484 271.332C204.484 270.439 205.377 268.827 204.484 268.113C203.591 267.399 203.033 265.952 204.64 266.488C206.247 267.024 209.288 267.033 210.359 267.926C211.43 268.819 215.364 270.952 216.078 272.738C216.792 274.524 218.578 277.207 218.578 277.207C218.578 277.207 219.109 276.319 219.109 275.426C219.109 274.533 220.002 272.046 220.359 273.832C220.716 275.618 223.765 276.145 223.765 276.145C223.765 276.145 223.39 275.953 222.14 273.988C220.89 272.024 220.172 270.247 220.172 269.176C220.172 268.104 220.555 267.203 220.734 266.488C220.913 265.774 219.484 266.488 219.484 266.488C219.484 266.488 216.256 267.028 217.328 265.957C218.399 264.886 219.279 263.636 217.672 264.707C216.064 265.778 216.422 263.832 216.422 263.832C216.422 263.832 216.622 260.778 215.015 262.207C213.408 263.636 211.078 264.345 211.078 262.738C211.078 261.131 211.783 257.203 210.89 258.988C209.997 260.774 208.756 261.671 208.578 260.957C208.399 260.243 207.506 256.497 207.328 257.926C207.149 259.355 205.913 261.846 205.734 260.238C205.555 258.631 203.922 256.136 203.922 257.207C203.922 258.279 203.564 262.203 202.672 260.238C201.779 258.274 200.725 255.055 200.547 257.02C200.368 258.984 199.1 261.685 198.922 259.363C198.743 257.042 198.752 254.524 197.859 256.488C196.966 258.453 196.618 260.078 195.547 259.363C194.475 258.649 194.48 255.073 193.765 257.395C193.051 259.716 189.484 258.645 189.484 258.645L188.765 259.363C188.765 259.363 190.372 263.279 188.765 262.207C187.158 261.136 185.359 260.792 185.359 261.863V262.926C185.359 262.926 184.301 263.296 183.765 262.582C183.525 262.261 183.3 261.702 183.14 261.395C185.43 259.57 187.81 257.776 188.39 257.582C189.462 257.225 195.538 254.529 199.109 254.707C202.681 254.886 204.123 254.368 207.516 255.082C210.908 255.796 214.1 259.18 215.172 259.895C216.243 260.609 216.984 259.895 216.984 259.895C214.306 257.573 211.605 254.006 207.141 253.113C204.908 252.667 201.895 252.444 199.016 252.488L199.022 252.482ZM182.96 261.544C182.97 261.737 182.987 261.919 183.054 262.388C183.411 264.888 182.33 265.942 181.616 265.763C180.902 265.585 181.098 263.46 180.741 266.138C180.384 268.817 178.42 268.808 178.241 267.201C178.063 265.594 177.522 266.326 178.772 265.076C179.326 264.523 181.097 263.034 182.96 261.545L182.96 261.544ZM195.585 267.513C195.886 267.463 196.072 267.964 197.679 269.169C197.679 269.169 197.862 269.87 197.148 270.763C196.433 271.656 196.255 270.955 194.648 270.42C194.459 270.357 194.322 270.321 194.21 270.295C194.119 270.459 194.072 270.539 194.023 270.607C194.196 270.853 194.491 271.169 194.491 271.482C194.491 272.196 194.491 272.741 193.241 272.92C191.991 273.098 192.875 271.656 193.054 270.763C193.232 269.87 193.929 270.763 193.929 270.763C193.929 270.763 193.998 270.641 194.023 270.607C193.847 270.357 193.785 270.196 194.21 270.295C194.39 269.97 194.593 269.576 194.491 269.17C194.313 268.455 194.464 268.268 195.179 267.732C195.357 267.598 195.485 267.53 195.585 267.513V267.513Z" fill="#CE9797"/>
<path d="M181.262 274.352C180.191 276.138 176.976 276.673 178.226 277.745C179.476 278.816 180.548 276.495 182.333 277.566C184.119 278.638 183.048 279.709 183.762 280.423C184.476 281.138 185.548 280.423 187.869 281.316C190.19 282.209 190.905 283.28 192.691 283.816C194.476 284.352 195.012 282.745 196.976 283.995C198.94 285.245 198.762 284.352 200.19 285.78C201.619 287.209 202.512 286.138 202.512 286.138C202.512 286.138 203.583 284.888 204.655 285.423C205.726 285.959 206.976 285.066 206.976 285.066C206.976 285.066 205.548 283.995 208.048 284.173C210.548 284.352 212.512 283.816 213.048 283.102C213.583 282.388 214.655 280.959 216.262 281.138C217.869 281.316 219.476 280.602 221.262 280.78C223.048 280.959 224.298 280.245 224.298 280.245C224.298 280.245 224.298 278.28 223.226 277.923C222.155 277.566 219.298 275.066 220.369 276.316C221.44 277.566 223.405 278.816 222.333 278.816C221.262 278.816 219.476 279.531 218.405 279.531C217.333 279.531 216.619 277.923 215.548 278.459C214.476 278.995 214.476 279.352 212.869 280.423C211.262 281.495 210.19 282.388 209.476 282.031C208.762 281.673 206.976 281.673 206.976 281.673C206.976 281.673 205.905 284.173 205.19 283.459C204.476 282.745 203.762 280.959 204.298 282.566C204.833 284.173 202.512 284.888 202.512 284.888C202.512 284.888 202.691 282.031 201.441 282.388C200.191 282.745 199.298 283.638 199.298 283.638C199.298 283.638 198.583 282.923 197.869 282.923C197.155 282.923 196.976 281.673 195.191 282.209C193.405 282.745 192.691 282.923 192.691 282.923L191.976 282.209L190.369 280.959L188.94 279.531L187.155 278.995C187.155 278.995 187.155 277.745 186.083 277.566C185.012 277.388 183.405 277.566 183.405 277.566L182.69 276.673L180.905 276.495L181.262 274.352Z" fill="#CE9797"/>
<path d="M293.052 253.542C289.896 253.751 286.521 255.6 284.646 256.136C282.146 256.85 273.034 264.886 271.427 266.136C269.82 267.386 264.833 272.216 263.583 273.823L263.052 274.886C263.052 274.886 264.842 274.355 266.271 273.105C267.699 271.855 269.105 270.426 270.177 269.355C271.248 268.283 273.596 266.497 274.489 265.605C275.382 264.712 280.543 261.502 282.864 260.073C285.186 258.645 287.873 258.618 290.552 258.261C292.896 257.948 292.914 258.478 294.677 258.73C293.899 259.405 293.239 261.667 293.239 261.667C293.239 261.667 292.882 261.319 291.989 259.355C291.096 257.39 291.454 259.877 290.739 260.948C290.025 262.02 288.766 263.44 288.052 263.261C287.337 263.082 287.512 262.011 287.333 260.761C287.154 259.511 286.271 263.261 286.271 263.261C286.271 263.261 285.355 262.573 285.177 261.323C284.998 260.073 284.663 262.743 283.771 263.636C282.878 264.529 282.146 263.64 280.896 263.105C279.646 262.569 279.659 264.712 279.302 265.605C278.945 266.498 276.811 267.743 275.739 268.636C274.668 269.529 273.57 269.868 272.677 270.761C271.784 271.654 269.489 273.462 268.239 274.355C266.989 275.248 264.641 276.681 263.927 277.573C263.212 278.466 263.953 278.105 264.489 279.355C265.025 280.605 265.561 279.341 265.739 278.448C265.918 277.556 266.083 277.56 267.333 277.917C268.583 278.274 267.677 279.886 267.677 279.886L266.989 280.948C266.989 280.948 269.476 282.02 271.083 282.198C272.69 282.377 275.556 282.551 277.521 282.73C279.485 282.908 275.713 282.207 273.927 281.136C272.141 280.065 270.918 279.873 269.489 278.98C268.061 278.087 268.583 277.725 268.583 277.011C268.583 276.297 268.927 276.48 268.927 276.48C268.927 276.48 270.739 274.716 271.989 273.823C273.239 272.931 273.052 273.636 273.052 273.636C273.052 273.636 274.288 276.136 274.646 277.386C275.003 278.636 276.083 279.524 277.333 280.417C278.583 281.31 280.378 281.145 283.771 281.323C287.163 281.502 289.284 279.698 290.177 278.448C291.07 277.198 291.262 273.993 291.083 272.386C290.904 270.779 289.132 269.886 289.489 268.636C289.846 267.386 290.378 268.444 292.52 268.98C294.663 269.515 295.199 269.529 296.27 269.886C297.342 270.243 298.212 270.962 298.927 273.105C299.641 275.248 300.177 276.48 300.177 276.48C300.177 276.48 302.337 276.658 303.052 277.73C303.772 278.81 302.342 280.09 302.342 280.09C302.342 280.09 299.141 281.509 298.248 282.402C297.355 283.295 293.239 283.813 290.56 283.277C287.882 282.742 286.091 283.996 286.091 283.996C286.091 283.996 286.261 284.884 287.154 284.527C288.047 284.17 289.123 285.965 289.123 285.965C289.123 285.965 290.542 287.036 291.435 285.965C292.328 284.893 292.868 286.518 293.404 287.59C293.94 288.661 295.726 287.045 295.904 286.152C296.083 285.259 296.435 287.59 296.435 287.59C296.435 287.59 298.592 287.393 301.092 287.215C303.592 287.036 303.243 285.983 303.779 283.84C304.315 281.697 304.136 282.036 305.029 280.965C305.922 279.893 306.975 282.027 308.404 283.277C309.833 284.527 313.953 288.125 314.31 288.84C314.667 289.554 312.176 284.358 310.748 283.465C309.319 282.572 307.342 279.545 306.092 278.652C304.842 277.759 305.904 274.715 305.904 274.715C305.904 274.715 309.292 274.018 311.435 273.84C313.578 273.661 313.06 273.286 314.31 272.215C315.56 271.143 316.261 270.956 317.154 269.527C318.047 268.099 314.828 269.192 312.685 270.621C310.542 272.05 312.689 270.09 313.404 268.84C314.118 267.59 313.944 266.697 314.123 265.09C314.301 263.483 313.422 263.639 312.529 263.996C311.636 264.353 309.118 265.09 308.404 265.09C307.69 265.09 305.373 264.527 305.373 264.527C305.373 264.527 304.471 262.054 303.935 260.09C303.4 258.126 299.841 255.603 296.091 253.996C295.154 253.594 294.112 253.489 293.06 253.559L293.052 253.542ZM295.552 258.823C298.231 259.002 297.677 258.993 298.927 261.136C300.177 263.279 298.226 262.564 297.333 262.386C296.44 262.207 296.623 260.252 295.552 258.823ZM280.177 269.948C280.597 269.94 281.208 270.006 282.146 270.073C284.646 270.252 283.583 271.479 283.583 272.729C283.583 272.729 281.99 273.462 280.74 273.104C279.49 272.747 279.668 272.198 279.49 270.948C279.378 270.167 279.478 269.962 280.177 269.948Z" fill="#CE9797"/>
<path d="M260.542 272.742C261.792 269.706 263.221 267.921 263.221 267.921L264.113 271.671C264.113 271.671 265.721 271.313 265.899 270.242C266.078 269.171 264.471 269.171 266.613 267.563C268.756 265.956 271.971 260.242 272.506 258.992C273.042 257.742 271.792 258.456 270.899 259.885C270.006 261.313 268.578 263.099 267.685 264.349C266.792 265.599 265.542 265.063 266.078 263.456C266.614 261.849 267.506 260.421 266.435 261.671C265.364 262.921 264.114 263.635 262.685 265.063C261.256 266.492 259.649 267.028 259.292 268.278C258.935 269.528 257.864 270.956 257.685 272.563C257.506 274.171 258.578 276.135 258.935 278.813C259.292 281.492 264.471 294.884 264.649 296.492C264.828 298.1 270.364 313.278 270.364 313.278C270.364 313.278 266.614 300.242 266.078 298.635C265.542 297.028 263.221 288.635 262.864 286.849C262.506 285.064 261.256 278.992 260.899 277.742C260.542 276.492 260.542 272.742 260.542 272.742L260.542 272.742Z" fill="#CE9797"/>
<path d="M272.692 317.212C275.371 326.498 276.621 328.462 275.906 330.962C275.192 333.462 273.848 335.038 272.598 335.574C271.348 336.11 268.67 336.426 267.598 336.604C266.527 336.783 264.299 336.498 265.549 335.248C266.799 333.998 268.942 331.855 269.478 330.783C270.013 329.712 269.835 326.319 270.549 327.748C271.263 329.176 272.335 332.033 272.335 332.033C272.335 332.033 272.342 334.659 273.763 332.748C276.383 329.227 274.121 324.355 273.763 323.283C273.406 322.212 272.692 317.212 272.692 317.212V317.212Z" fill="#CE9797"/>
<path d="M254.922 331.132C252.958 329.346 252.065 328.811 250.815 327.918C249.565 327.025 247.69 325.953 245.815 326.4C243.94 326.846 240.458 329.436 239.922 329.703C239.386 329.971 236.529 331.043 236.351 332.114C236.172 333.186 235.458 334.257 236.172 334.793C236.886 335.329 240.19 335.329 240.726 335.329C241.261 335.329 244.119 334.079 244.922 333.096C245.726 332.114 247.065 329.971 248.404 329.882C249.743 329.793 251.172 329.882 251.618 330.507C252.065 331.132 252.065 332.293 253.047 332.829C254.029 333.364 254.833 333.543 255.101 333.096C255.368 332.65 254.922 331.132 254.922 331.132L254.922 331.132Z" fill="#CE9797"/>
<path d="M226.442 331.602C226.189 333.496 225.432 335.011 226.126 336.274C226.821 337.537 229.725 339.683 230.861 339.936C231.998 340.188 234.965 340.062 234.397 339.936C229.079 338.747 227.57 336.662 226.631 331.097L226.442 331.602Z" fill="#CE9797"/>
<path d="M249.542 339.422C250.994 340.811 251.815 341 253.33 341.316C254.845 341.632 258.255 340.748 258.633 340.432C259.012 340.116 261.664 338.475 261.664 338.475L264.252 335.571C264.252 335.571 262.054 336.434 261.285 337.654C260.205 339.368 255.61 341.39 249.542 339.422V339.422Z" fill="#CE9797"/>
<path d="M91.072 274.522C90.5669 273.891 89.8093 272.502 88.4204 271.618C87.0314 270.734 83.1171 268.587 82.2332 268.082C81.3493 267.577 80.4654 265.81 78.9502 265.683C77.435 265.557 72.763 264.673 72.1317 265.683C71.5003 266.693 70.869 267.956 71.2478 268.84C71.6266 269.724 72.3842 268.84 72.5105 270.86C72.6368 272.881 73.6469 275.28 74.4045 277.047C75.1621 278.815 75.0358 280.457 75.0358 281.088C75.0358 281.719 75.9197 281.846 76.2985 280.33C76.6773 278.815 76.2985 276.542 75.7935 275.785C75.2884 275.027 73.6469 271.365 73.5207 270.86C73.3944 270.355 74.6571 268.84 75.6673 268.84C76.6775 268.84 79.3291 268.966 79.8342 268.84C80.3392 268.714 84.7587 270.734 84.885 271.365C85.0112 271.997 85.7688 274.648 86.9053 275.532C88.0417 276.416 90.062 276.29 90.062 276.29L91.072 274.522Z" fill="#CE9797"/>
<path d="M93.352 280.202C93.7308 281.338 94.4884 281.844 92.7206 283.864C90.9529 285.884 90.9528 284.495 89.9427 286.642C88.9325 288.788 86.4072 289.798 89.1851 290.682C91.963 291.566 95.7511 288.536 96.1299 288.031C96.5087 287.526 96.0036 285.126 97.3926 286.894C98.7816 288.662 99.7917 291.819 100.423 291.945C101.054 292.071 98.9078 284.116 98.9078 284.116C98.9078 284.116 101.307 283.485 102.696 284.621C104.085 285.758 105.221 284.874 107.873 285C110.525 285.127 116.586 282.222 110.398 282.222C104.211 282.222 108.378 283.359 106.989 283.738C105.6 284.116 102.822 282.349 102.317 282.096C101.812 281.844 98.2764 282.096 98.2764 282.096L93.352 280.202Z" fill="#CE9797"/>
<path d="M106.612 314.422C106.738 312.275 108.506 311.139 107.37 310.76C106.233 310.381 104.971 308.992 104.718 311.139C104.465 313.286 104.087 313.538 104.718 314.548C105.349 315.559 106.612 314.422 106.612 314.422L106.612 314.422Z" fill="#CE9797"/>
<path d="M101.932 315.182C101.553 314.298 102.058 312.404 100.922 313.414C99.7854 314.424 98.5227 314.803 99.0278 316.318C99.5329 317.834 98.649 318.086 99.7854 318.212C100.922 318.339 101.806 316.318 101.806 316.318L101.932 315.182Z" fill="#CE9797"/>
<path d="M95.242 317.582C94.6107 318.466 95.3683 318.971 94.4844 320.107C93.6005 321.244 92.9692 320.739 92.4641 322.254C91.9591 323.769 92.5904 324.022 92.0853 325.411C91.5802 326.8 90.5701 328.82 91.0751 329.451C91.5802 330.083 93.4742 334.25 93.4742 331.345C93.4742 328.441 91.7064 327.178 93.348 326.673C94.9895 326.168 95.242 325.663 95.6208 324.148C95.9996 322.633 95.3682 322.254 96.5046 321.875C97.641 321.496 97.8936 320.991 97.641 319.855C97.3885 318.718 95.2419 317.582 95.2419 317.582H95.242Z" fill="#CE9797"/>
<path d="M106.952 318.922C106.877 318.924 106.812 318.961 106.733 318.984C105.471 319.363 102.296 320.609 102.296 320.609C100.023 321.367 100.178 321.498 99.4207 323.266C98.6631 325.033 97.6445 325.534 97.1395 326.797C96.6345 328.06 95.3583 328.815 95.3583 330.078C95.3583 331.341 96.6395 330.714 96.6395 332.734C96.6395 334.755 97.3997 338.423 96.3895 338.297C95.3793 338.171 95.3608 334.771 95.1083 334.266C94.8558 333.761 93.7384 335.123 93.2333 336.891C92.7283 338.658 90.5694 337.658 91.3271 339.047C92.0848 340.436 93.3469 339.942 94.4833 341.078C95.6197 342.214 95.4993 344.104 97.0145 344.609C98.5297 345.114 101.676 343.209 101.171 345.734C100.666 348.26 99.7868 348.892 100.671 348.765C101.555 348.639 103.062 345.61 104.577 345.484C106.092 345.358 107.351 344.468 108.108 342.953C108.866 341.438 112.777 338.052 111.514 337.547C110.252 337.042 111.288 336.149 108.889 338.422C106.49 340.695 105.837 344.222 104.827 342.328C103.817 340.434 104.092 340.813 105.733 339.172C107.375 337.53 109.016 335.523 108.889 334.766C108.763 334.008 107.617 333.483 106.733 333.609C105.849 333.736 102.569 333.745 103.327 332.734C104.085 331.724 107.225 332.495 107.983 331.484C108.741 330.474 106.849 326.933 107.733 325.797C108.617 324.66 109.888 323.274 110.014 325.547C110.141 327.82 110.504 330.703 111.514 330.703C112.524 330.703 114.795 330.578 114.795 330.578C114.795 330.578 117.719 329.212 115.952 328.328C114.184 327.444 112.92 326.554 112.92 325.797C112.92 325.039 113.182 322.644 112.045 322.266C110.909 321.887 109.769 321.361 109.264 321.234C108.791 321.116 108.077 318.888 106.952 318.922H106.952ZM99.6708 329.328C99.6708 329.328 101.432 330.72 100.296 332.109C99.1594 333.498 99.9094 333.757 101.046 334.64C102.182 335.524 101.425 335.897 101.046 338.297C100.667 340.696 101.431 342.199 100.421 342.578C99.4106 342.957 99.3946 339.677 98.8896 339.172C98.3845 338.667 98.0133 337.161 98.1396 335.14C98.2659 333.12 99.7971 330.338 99.6708 329.328V329.328Z" fill="#CE9797"/>
<path d="M123.532 323.392C121.764 322.256 119.491 322.256 118.734 322.508C117.976 322.761 116.587 324.15 117.219 325.033C117.85 325.917 119.744 326.549 121.007 327.685C122.269 328.822 122.774 329.327 123.658 330.842C124.542 332.357 125.3 331.347 124.921 330.463C124.542 329.579 123.658 327.559 123.532 326.928C123.406 326.296 122.522 325.538 121.259 325.286C119.996 325.033 118.355 324.276 118.355 324.276C118.355 324.276 118.734 323.266 120.628 323.897C122.522 324.528 122.396 325.033 123.784 325.16C125.173 325.286 126.057 324.276 125.552 324.023C125.047 323.771 123.532 323.392 123.532 323.392V323.392Z" fill="#CE9797"/>
<path d="M119.362 329.702C121.635 330.965 122.771 333.49 123.15 334.5C123.529 335.51 124.413 335.637 124.286 336.394C124.16 337.152 123.908 338.288 123.024 337.531C122.14 336.773 122.014 335.384 121.256 334.5C120.498 333.616 120.12 332.606 119.236 331.849C118.352 331.091 119.362 329.702 119.362 329.702H119.362Z" fill="#CE9797"/>
<path d="M118.602 334.882C119.36 336.65 121.254 337.66 123.021 340.69C124.789 343.721 123.021 343.973 123.4 346.12C123.779 348.267 124.032 350.666 124.158 352.939C124.284 355.211 123.779 358.242 124.284 360.01C124.789 361.777 129.082 367.081 128.325 370.112C127.567 373.142 129.714 374.657 129.209 376.425C128.703 378.193 127.693 379.708 127.693 379.708C127.693 379.708 126.557 376.93 126.557 375.415C126.557 373.9 125.168 370.995 125.168 370.995C125.168 370.995 124.284 371.753 123.905 372.763C123.526 373.774 123.274 372.384 122.516 371.122C121.759 369.859 119.486 365.566 118.349 365.187C117.213 364.808 115.193 364.177 116.077 365.692C116.96 367.207 118.728 366.324 118.349 368.344C117.971 370.364 117.718 371.753 117.339 373.016C116.96 374.279 117.213 375.036 116.329 374.657C115.445 374.279 114.94 373.647 115.824 372.511C116.708 371.374 116.834 368.723 116.329 367.839C115.824 366.955 114.435 366.576 114.94 365.945C115.445 365.313 115.319 362.535 116.834 362.662C118.349 362.788 117.339 363.798 118.854 362.283C120.369 360.768 120.496 360.389 120.117 359.505C119.738 358.621 120.243 357.106 118.728 357.864C117.213 358.621 116.076 358.874 116.203 357.737C116.329 356.601 116.329 355.086 115.192 354.833C114.056 354.581 114.687 353.065 114.814 352.56C114.94 352.055 114.687 349.025 113.93 350.161C113.172 351.298 113.551 350.919 112.919 352.308C112.288 353.697 112.288 355.464 110.394 355.338C108.5 355.212 108.879 355.464 109.131 357.232C109.384 359 110.015 359.631 108.5 360.136C106.985 360.641 105.596 360.768 106.227 362.535C106.859 364.303 107.742 367.586 107.111 368.091C106.48 368.596 105.47 369.733 105.343 368.091C105.217 366.45 102.06 363.924 102.944 362.788C103.828 361.652 104.964 358.369 106.732 357.737C108.5 357.106 108.5 354.833 107.616 354.707C106.732 354.58 106.101 354.707 106.353 353.823C106.606 352.939 105.596 349.151 106.732 350.161C107.869 351.171 108.879 353.444 109.384 352.686C109.889 351.929 110.647 350.666 110.268 349.53C109.889 348.393 108.879 346.373 108.247 347.004C107.616 347.636 105.47 349.151 106.101 347.888C106.732 346.626 108.752 344.1 108.752 344.1C108.752 344.1 108.626 343.09 109.889 342.206C111.152 341.322 110.899 340.565 112.162 339.555C113.424 338.544 115.571 338.797 114.687 337.029C113.803 335.261 111.909 335.261 112.035 334.63C112.162 333.999 114.435 333.115 115.318 333.115C116.202 333.115 116.202 334.378 116.581 335.388C116.96 336.398 116.707 335.766 116.455 337.155C116.202 338.544 116.202 339.428 115.319 340.06C114.435 340.691 113.424 339.933 113.803 341.575C114.182 343.216 114.687 343.09 114.687 345.11C114.687 347.131 114.308 349.909 113.551 348.141C112.793 346.373 112.162 342.206 111.531 343.721C110.899 345.237 110.268 345.615 111.531 346.878C112.793 348.141 114.561 349.151 112.667 350.414C110.773 351.676 109.636 353.444 109.384 351.045C109.131 348.646 110.015 346.499 109.258 347.509C108.5 348.52 109.763 349.909 109.636 351.045C109.51 352.181 107.49 354.454 108.626 354.454C109.763 354.454 112.793 349.656 112.793 349.656C112.793 349.656 115.192 347.636 115.571 348.52C115.95 349.404 117.086 353.949 117.339 354.707C117.591 355.464 118.728 357.106 118.475 355.717C118.223 354.328 120.117 353.949 119.233 352.308C118.349 350.666 117.844 349.53 118.096 348.141C118.349 346.752 118.98 345.615 118.475 344.858C117.97 344.1 116.834 342.459 116.834 342.459C116.834 342.459 115.571 339.176 116.96 339.807C118.349 340.438 119.233 342.206 119.359 343.09C119.485 343.974 120.622 345.994 120.622 347.004C120.622 348.015 121.001 349.025 120.748 350.414C120.496 351.803 120.622 354.076 120.874 354.833C121.127 355.591 121.632 357.864 122.137 357.737C122.642 357.611 123.021 356.475 122.642 355.086C122.263 353.697 121.885 351.676 122.011 350.54C122.137 349.404 122.137 346.878 122.137 346.247C122.137 345.615 122.516 343.343 121.506 342.459C120.496 341.575 119.738 340.817 119.485 340.312C119.233 339.807 118.223 338.418 118.223 337.408C118.223 336.398 118.602 334.882 118.602 334.882L118.602 334.882Z" fill="#CE9797"/>
<path d="M114.692 309.622C114.692 309.622 113.177 311.137 113.429 311.769C113.682 312.4 112.04 311.264 111.409 312.652C110.778 314.041 110.02 315.43 111.156 315.557C112.293 315.683 112.167 313.915 112.545 313.41C112.924 312.905 112.798 312.905 114.692 312.021C116.586 311.137 114.692 309.622 114.692 309.622L114.692 309.622Z" fill="#CE9797"/>
<path d="M117.842 314.042C116.327 313.789 115.19 313.789 115.948 314.926C116.706 316.062 115.443 316.189 115.443 317.072C115.443 317.956 115.19 319.093 116.453 318.588C117.716 318.083 117.337 316.946 118.095 316.694C118.852 316.441 122.009 316.062 120.115 315.557C118.221 315.052 117.463 314.926 117.463 314.926L117.842 314.042Z" fill="#CE9797"/>
<path d="M122.012 316.062C122.138 316.567 122.012 317.83 121.381 318.209C120.749 318.587 121.759 319.471 122.391 319.345C123.022 319.219 123.654 318.966 123.401 318.082C123.149 317.198 123.275 316.314 123.275 316.314L122.012 316.062Z" fill="#CE9797"/>
<path d="M115.442 322.762C115.316 323.267 113.548 323.772 114.306 324.909C115.063 326.045 115.316 328.57 116.073 328.065C116.831 327.56 115.821 325.035 115.821 325.035L115.947 323.898L115.442 322.762Z" fill="#CE9797"/>
<path d="M259.922 357.392C258.672 357.66 254.922 360.874 254.297 361.142C253.672 361.41 251.261 362.03 249.922 360.423C248.583 358.816 246.074 358.365 244.734 358.454C243.395 358.544 238.587 360.704 237.516 361.329C236.444 361.954 234.025 363.562 232.328 364.454C230.632 365.347 227.498 366.396 225.891 367.111C224.284 367.825 221.252 369.454 220.359 370.079C219.467 370.704 217.422 373.454 217.422 373.454C217.422 373.454 219.922 370.606 221.172 369.892C222.422 369.178 231.98 364.812 233.141 364.454C234.302 364.097 243.762 358.468 245.547 358.736C247.333 359.003 251.703 361.954 251.703 361.954C251.703 361.954 253.77 362.035 254.484 361.767C255.199 361.499 258.77 357.829 260.109 357.829C261.449 357.829 266.248 359.271 267.766 359.986C269.283 360.7 278.047 369.611 278.047 369.611C277.422 366.932 271.181 361.579 269.484 360.329C267.788 359.079 261.172 357.124 259.922 357.392L259.922 357.392ZM242.672 363.986L243.953 367.142C242.928 367.39 241.264 368.049 240.266 368.361C240.042 368.43 239.979 368.493 239.953 368.517C240.288 368.534 242.297 368.2 243.234 368.267C244.484 368.356 244.641 368.361 244.641 368.361C244.641 368.361 245.016 370.437 244.391 371.33C243.766 372.222 241.882 371.865 241.078 371.955C240.275 372.044 238.484 371.838 237.859 370.767C237.32 369.842 237.597 369.531 237.234 369.517C236.909 369.206 236.756 369.103 236.609 368.736C236.431 368.289 235.641 367.111 235.641 367.111L236.516 369.705C236.098 369.883 235.496 370.197 234.859 370.548C233.005 369.679 231.359 368.892 231.359 368.892L234.391 370.798C233.16 371.501 231.856 372.33 231.266 372.83C231.233 372.857 231.204 372.866 231.172 372.892C228.944 372.471 226.266 371.236 226.266 371.236L230.516 373.361C229.703 373.839 228.962 373.917 227.859 373.986C226.431 374.075 226.614 374.258 224.828 374.705C223.043 375.151 221.529 374.089 221.172 373.642C220.815 373.196 219.462 373.892 219.016 374.517C219.016 374.517 219.739 375.517 220.453 375.517C221.168 375.517 223.221 375.236 224.203 375.236C225.185 375.236 226.511 374.794 227.672 374.705C228.833 374.615 228.837 375.437 229.641 375.705C230.445 375.972 231.177 375.879 232.516 376.236C233.855 376.593 235.351 377.472 235.797 377.83C236.244 378.187 237.962 377.839 238.766 377.392C239.57 376.946 240.199 376.673 240.735 376.673C241.27 376.673 242.422 377.214 243.672 377.392C244.922 377.571 245.994 376.49 246.797 376.58C247.601 376.669 249.842 376.843 252.61 377.111C255.378 377.379 254.284 376.231 255.891 376.142C257.498 376.053 257.141 377.83 257.141 377.83C257.141 377.83 257.796 377.777 257.953 377.767C256.922 378.129 255.647 378.572 254.828 378.736C253.489 379.004 250.547 379.897 251.172 379.986C251.797 380.075 256.453 379.419 261.453 378.08C262.838 378.044 264.165 376.636 264.922 375.955C266.172 376.133 270.462 379.968 272.516 381.486C274.569 383.004 274.833 383.017 275.547 384.267C276.261 385.517 275.998 388.892 276.266 391.392C276.534 393.892 277.601 393.276 278.672 394.08C279.743 394.883 280.717 401.405 280.984 402.298C281.252 403.191 282.422 406.486 282.422 406.486C282.422 406.486 284.556 403.807 285.359 402.736C286.163 401.664 286.98 399.089 286.891 398.642C286.801 398.196 285.529 394.888 285.172 393.548C284.815 392.209 281.886 388.557 281.172 387.486C280.458 386.414 280.547 385.343 280.547 384.986C280.547 384.629 279.467 383.91 279.109 383.642C278.752 383.374 278.931 381.41 278.484 380.517C278.038 379.624 281.868 378.812 282.672 377.829C283.475 376.847 279.194 376.325 278.391 376.236C277.587 376.146 277.136 374.16 277.047 373.267C276.958 372.374 278.145 371.227 278.234 370.423C278.324 369.62 277.239 370.155 276.703 370.423C276.167 370.691 273.315 372.204 272.422 372.829C271.529 373.454 268.48 372.298 267.766 372.298C267.109 372.298 264.466 369.652 263.485 369.017C264.668 367.571 266.507 365.394 265.985 365.767C265.488 366.122 263.543 367.719 262.578 368.673C261.945 368.467 261.279 368.266 260.422 368.017C262.223 366.428 263.924 364.844 263.297 365.236C262.681 365.621 260.452 367.312 259.766 367.829C259.467 367.745 259.007 367.616 258.86 367.579C258.44 367.475 258.085 367.408 257.704 367.329C257.883 365.928 258.18 364.801 258.36 364.298C258.174 364.696 257.455 366.272 257.172 367.204C257.042 367.171 256.95 367.156 256.797 367.111C255.904 366.843 256.181 365.512 256.36 364.798C256.404 364.62 256.315 364.557 256.172 364.548C255.745 364.523 254.735 365.079 254.735 365.079C254.735 365.079 254.369 365.865 253.922 366.579C253.476 367.294 251.878 367.307 250.985 367.486C250.65 367.553 250.209 367.574 249.735 367.579C249.898 365.837 249.922 363.986 249.922 363.986L249.203 367.579C248.583 367.566 247.946 367.529 247.516 367.486C246.623 367.396 245.096 367.468 244.828 367.111C244.792 367.063 244.699 367.047 244.578 367.048C243.576 364.912 242.672 363.986 242.672 363.986L242.672 363.986ZM255.516 367.798C255.59 367.8 255.679 367.807 255.735 367.829C256.181 368.008 256.422 368.986 256.422 368.986C256.154 369.879 256.695 370.602 255.266 371.048C253.837 371.495 250.449 372.222 249.11 371.954C247.771 371.687 246.355 371.588 246.266 371.142C246.177 370.695 245.462 368.91 246.266 368.642C246.913 368.426 248.03 368.481 249.016 368.517V368.548L249.079 368.517C249.295 368.525 249.544 368.548 249.735 368.548C250.806 368.548 254.11 368.204 254.11 368.204C254.11 368.204 254.995 367.781 255.516 367.798V367.798Z" fill="#CE9797"/>
<path d="M270.642 384.142C270.642 384.142 272.516 386.412 272.642 387.548C272.723 388.274 272.895 388.868 273.017 389.298C271.56 390.181 269.871 391.116 268.173 392.017C267.808 388.548 266.079 385.642 266.079 385.642C266.079 385.642 267.108 388.912 267.361 390.048C267.496 390.656 267.521 391.591 267.517 392.361C265.328 393.507 263.335 394.475 262.861 394.611C262.566 394.695 261.236 394.791 259.423 394.892C259.722 391.901 258.392 386.892 258.392 386.892C258.392 386.892 259.143 393.229 259.017 393.861C258.954 394.176 258.877 394.466 258.767 394.923C256.557 395.037 253.786 395.174 250.954 395.236C251.708 392.184 251.079 391.048 251.079 391.048C250.984 392.427 250.957 393.791 250.267 395.236C249.228 395.256 248.223 395.261 247.236 395.267C247.973 391.486 247.861 389.986 247.861 389.986L246.423 395.267C243.357 395.271 240.765 395.212 239.829 394.986C239.567 394.922 239.197 394.768 238.829 394.642C240.332 392.209 240.454 388.673 240.454 388.673C240.454 388.673 239.522 392.511 239.017 393.142C238.726 393.506 238.279 393.959 237.923 394.329C237.091 394.012 236.106 393.585 235.079 393.142C235.603 392.227 236.019 390.544 236.298 389.204C236.077 390.136 235.769 391.139 235.517 391.454C235.167 391.892 234.76 392.41 234.392 392.861C230.533 391.171 226.226 389.112 225.548 388.829C224.477 388.383 220.361 385.687 219.736 385.329C219.111 384.972 218.486 385.517 218.486 385.517C227.057 391.678 233.388 395.7 235.798 396.236C238.208 396.772 244.391 396.932 246.892 397.111C249.392 397.29 259.021 397.039 260.361 396.861C261.7 396.682 266.075 395.776 266.611 395.33C267.146 394.883 275.441 389.901 275.798 389.455C276.155 389.008 276.695 385.865 275.892 387.205C275.7 387.525 274.913 388.111 273.829 388.799C273.266 385.453 270.642 384.142 270.642 384.142L270.642 384.142Z" fill="#CE9797"/>
<path d="M283.892 380.842C284.271 381.6 284.018 383.241 284.397 383.999C284.776 384.756 292.099 387.787 295.004 389.428C297.908 391.07 308.262 397.636 308.262 397.636C308.262 397.636 308.262 394.732 308.01 393.974C307.757 393.216 308.641 391.07 307.631 390.312C306.621 389.555 301.57 387.408 301.065 387.282C300.56 387.156 298.792 386.145 300.055 387.156C301.317 388.166 305.232 389.555 305.737 390.439C306.242 391.322 307.883 392.585 306.747 392.838C305.61 393.09 304.979 391.701 303.716 390.944C302.454 390.186 301.444 390.06 300.56 389.302C299.676 388.545 298.539 388.166 297.277 387.787C296.014 387.408 292.226 385.388 291.468 385.009C290.711 384.63 288.185 383.62 287.806 382.989C287.428 382.357 285.534 381.726 285.534 381.726L283.892 380.842Z" fill="#CE9797"/>
<path d="M287.172 398.142C287.551 395.743 289.95 393.344 289.95 392.207C289.95 391.071 290.96 389.303 291.465 389.303C291.97 389.303 296.516 391.955 297.4 392.081C298.284 392.207 301.693 394.101 300.556 393.47C299.42 392.839 295.884 390.44 294.496 389.935C293.107 389.43 291.465 388.167 290.455 388.041C289.445 387.914 285.53 386.399 284.647 386.02C283.763 385.641 281.111 383.621 281.111 384.126C281.111 384.631 282.5 386.02 284.268 386.778C286.036 387.536 289.066 389.303 289.319 389.808C289.571 390.313 289.066 393.849 288.435 394.733C287.803 395.617 287.172 398.142 287.172 398.142L287.172 398.142Z" fill="#CE9797"/>
<path d="M288.942 406.672C289.835 408.101 290.371 408.993 290.192 410.601C290.013 412.208 288.763 413.636 289.835 414.351C290.906 415.065 292.871 413.993 292.513 415.422C292.156 416.851 290.906 417.743 288.942 418.458C286.978 419.172 282.335 422.029 280.371 423.458C278.406 424.886 275.371 428.636 275.192 429.351C275.013 430.065 274.478 431.136 274.478 431.136C274.478 431.136 273.406 428.458 270.906 428.101C268.406 427.743 266.442 426.493 264.299 427.029C262.156 427.565 258.942 427.743 257.514 429.172C256.085 430.601 253.764 432.743 252.692 434.172C251.621 435.601 249.835 436.672 249.835 438.279C249.835 439.886 250.371 445.065 250.192 446.672C250.014 448.279 246.799 453.815 246.264 455.779C245.728 457.744 242.692 463.994 241.978 465.601C241.264 467.208 238.228 471.315 236.978 472.565C235.728 473.815 231.978 479.172 230.371 481.136C228.764 483.101 218.05 494.172 217.157 495.6C216.264 497.029 215.728 498.1 216.264 497.207C216.8 496.315 221.442 490.065 221.978 489.172C222.514 488.279 226.8 484.35 228.228 482.386C229.657 480.422 230.55 476.85 230.907 475.6C231.264 474.35 231.085 471.493 228.228 467.743C225.368 463.993 207.328 450.603 203.578 448.283C199.828 445.962 176.078 427.212 169.649 422.747C163.221 418.283 151.792 407.747 147.328 403.997C142.864 400.247 131.792 380.604 131.792 380.604C131.792 380.604 138.221 391.497 150.899 399.354C163.578 407.211 189.649 422.211 197.863 425.247C206.077 428.283 220.542 434.176 225.363 434.176C230.185 434.176 249.113 434.176 251.077 433.283C253.041 432.39 259.47 428.104 260.184 427.569C260.899 427.033 267.863 424.176 269.291 422.569C270.72 420.961 276.613 417.39 277.506 415.783C278.399 414.176 282.506 407.569 282.506 407.569C282.506 407.569 282.327 410.783 283.399 410.783C284.47 410.783 286.792 411.319 287.684 410.426C288.577 409.533 288.934 406.676 288.934 406.676L288.942 406.672Z" fill="#CE9797"/>
<path d="M276.082 433.812C276.796 435.419 278.403 437.562 277.332 440.776C276.261 443.991 274.832 449.348 274.475 452.383C274.118 455.419 272.689 462.919 272.332 464.169C271.975 465.419 271.082 468.634 271.082 468.634C271.082 468.634 272.868 469.705 273.046 468.812C273.225 467.919 271.618 466.312 272.332 464.348C273.046 462.384 273.939 457.205 276.082 458.455C278.225 459.705 278.582 461.134 278.403 458.455C278.225 455.776 279.296 451.669 280.01 448.812C280.725 445.955 279.118 443.455 278.76 442.205C278.403 440.955 276.439 436.491 277.689 437.741C278.939 438.991 280.189 440.955 280.189 440.955C280.189 440.955 281.26 437.384 281.26 436.134C281.26 434.884 281.082 431.848 280.189 431.669C279.296 431.491 279.653 433.277 279.653 433.991C279.653 434.705 278.939 434.705 278.046 434.348C277.153 433.991 276.082 433.812 276.082 433.812V433.812Z" fill="#CE9797"/>
<path d="M309.652 416.852C308.045 417.031 306.795 418.459 306.795 418.459C306.795 418.459 297.688 416.316 295.545 416.495C293.402 416.673 296.259 416.673 297.688 417.031C299.116 417.388 304.652 418.281 305.366 418.816C306.081 419.352 308.402 419.531 308.581 422.209C308.759 424.888 308.223 440.602 307.688 442.388C307.152 444.174 301.616 464.709 301.616 464.709C301.616 464.709 300.188 469.531 300.723 471.673C301.259 473.816 301.081 475.781 301.616 474.709C302.152 473.638 301.081 473.459 301.438 471.673C301.795 469.888 304.116 460.066 304.116 460.066C304.116 460.066 307.509 447.387 308.223 445.602C308.938 443.817 309.473 438.817 309.473 436.852C309.473 434.888 309.831 421.316 309.831 420.423C309.831 419.531 310.902 414.352 311.259 413.459C311.616 412.566 312.688 407.566 312.688 405.781C312.688 403.995 309.474 397.031 309.474 397.031C309.474 397.031 308.402 396.316 309.474 398.816C310.545 401.316 311.438 406.495 310.902 410.423C310.366 414.352 309.652 416.852 309.652 416.852L309.652 416.852Z" fill="#CE9797"/>
<path d="M334.492 402.012C334.461 402.65 334.562 403.41 335.023 404.887C335.453 406.263 336.072 408.769 336.617 411.324C336.617 411.324 341.099 412.749 341.992 413.106C342.885 413.463 348.394 417.025 348.93 417.918C349.465 418.811 350.367 422.199 350.367 422.199C350.367 422.199 351.09 416.664 350.555 415.949C350.019 415.235 348.063 413.28 346.992 411.137C345.921 408.994 344.305 406.324 344.305 406.324L343.398 404.762C343.52 405.434 343.617 405.981 343.617 405.981L334.492 402.012L334.492 402.012ZM337.082 413.582C337.443 415.527 337.676 417.319 337.676 418.457C337.676 421.493 338.761 428.645 338.582 431.145C338.403 433.645 336.988 438.27 336.988 438.27C336.988 438.27 334.64 442.203 333.926 445.239C333.211 448.275 333.22 454.882 332.863 458.989C332.506 463.096 332.319 462.199 330.176 465.77C328.033 469.341 329.819 470.422 330.176 468.457C330.533 466.493 331.622 463.984 333.051 463.27C334.479 462.556 336.792 461.855 337.863 460.426C338.935 458.998 345.725 451.332 344.832 451.332C343.939 451.332 339.845 457.386 338.238 458.457C336.631 459.529 335.899 459.524 335.363 457.739C334.827 455.953 334.832 453.998 334.832 452.926C334.832 451.855 334.475 447.02 334.832 444.52C335.189 442.02 337.502 437.047 338.394 436.332C339.287 435.618 343.22 430.609 344.113 429.895C345.006 429.181 350.716 423.274 349.644 423.989C348.573 424.703 344.488 428.453 343.238 428.989C341.988 429.524 341.631 432.757 340.738 429.364C339.845 425.971 339.461 422.038 338.926 421.145C338.522 420.472 337.606 416.122 337.082 413.582L337.082 413.582Z" fill="#CE9797"/>
<path d="M351.442 420.422C351.442 422.922 352.692 427.208 353.585 428.993C354.478 430.779 355.014 438.279 354.299 440.064C353.585 441.85 348.049 448.814 348.049 448.814C348.049 448.814 354.121 440.243 353.585 438.814C353.049 437.386 353.585 429.35 352.692 428.278C351.799 427.207 350.728 422.564 350.728 422.564L351.442 420.422Z" fill="#CE9797"/>
<path d="M381.112 449.822C379.724 449.82 378.923 450.029 378.456 450.197C373.377 458.021 369.19 463.908 364.831 470.103C360.033 476.921 355.994 482.475 352.206 489.041C348.418 495.607 346.4 500.149 342.612 504.947C338.824 509.745 328.222 514.563 320.393 518.603C312.564 522.644 302.462 528.714 295.643 533.259C288.825 537.805 279.986 546.62 276.955 551.165C273.924 555.711 273.155 558.999 271.892 563.04C270.63 567.081 269.121 565.065 268.111 571.884C267.101 578.702 266.828 595.631 267.08 605.228C267.333 614.824 266.833 647.392 266.58 655.978C266.328 664.564 265.583 673.151 265.33 677.697C265.078 682.243 266.08 712.308 266.08 716.853C266.08 721.399 269.88 755.721 271.143 759.509C272.405 763.297 274.924 784.276 274.924 788.821C274.924 793.366 275.431 794.868 274.674 796.383C273.916 797.898 267.095 805.23 265.58 808.008C264.065 810.786 261.294 814.08 261.799 819.383C262.304 824.687 263.801 827.713 263.549 832.258C263.296 836.804 261.78 842.603 260.518 845.633C259.255 848.664 256.729 856.735 257.486 859.008C258.244 861.281 256.745 864.333 259.018 863.071C261.29 861.808 264.817 853.471 266.08 850.946C267.343 848.42 267.864 842.611 267.611 838.571C267.359 834.53 267.338 829.708 266.58 828.446C265.822 827.183 263.296 818.875 263.549 816.602C263.801 814.329 268.87 805.466 271.143 803.446C273.416 801.425 276.955 798.646 276.955 797.383C276.955 796.121 275.924 784.508 275.924 784.508C275.924 784.508 273.158 757.005 271.643 754.227C270.128 751.449 269.112 737.796 269.112 734.008C269.112 730.22 264.555 715.325 267.08 702.446C269.606 689.567 271.148 679.218 279.986 664.571C288.825 649.924 301.429 629.71 303.955 625.165C306.481 620.62 307.515 617.334 307.768 613.04C308.02 608.747 311.275 575.403 319.862 557.978C328.448 540.553 339.059 526.433 356.737 512.29C374.415 498.148 386.288 489.56 390.581 487.54C394.874 485.52 398.399 485.269 400.925 484.259C403.45 483.249 415.853 480.973 419.894 481.478C423.934 481.983 430.978 482.734 435.019 485.259C439.059 487.785 441.855 489.064 451.957 508.509C462.059 527.955 467.597 555.706 466.082 573.384C464.567 591.062 459.022 608.239 449.426 619.603C439.83 630.967 425.955 645.368 416.864 662.541C407.772 679.714 381.753 721.147 377.208 729.229C372.662 737.31 362.312 755.24 361.302 757.26C360.292 759.28 360.038 760.263 358.271 760.01C356.503 759.758 350.695 761.53 348.927 759.51C347.159 757.49 344.882 759.018 343.114 761.291C341.347 763.564 340.077 768.606 337.552 768.354C335.027 768.101 333.006 765.833 328.208 767.854C323.41 769.874 317.338 775.435 316.833 776.698C316.328 777.96 305.494 783.769 301.958 786.041C300.79 786.793 299.601 787.86 298.614 788.854C302.9 785.194 313.194 779.419 315.833 778.979C318.864 778.474 319.631 778.976 324.177 779.229C328.723 779.481 331.753 782.494 333.521 780.979C335.289 779.464 338.058 773.166 340.583 770.135C343.109 767.104 342.616 764.559 348.677 762.791C354.738 761.023 358.274 760.771 361.052 762.791C363.83 764.811 364.321 767.604 365.583 767.604C366.846 767.604 373.417 768.622 374.427 769.885C375.437 771.147 376.958 773.916 376.958 773.916L375.927 773.666C375.927 773.666 377.716 776.437 376.958 777.447C376.201 778.457 375.426 780.997 372.396 782.26C369.365 783.522 361.284 785.267 360.021 784.51C358.758 783.752 358.277 784.505 360.802 785.01C363.328 785.515 367.875 784.278 366.865 785.541C365.854 786.804 362.572 789.075 360.552 788.822C358.532 788.57 354.221 787.554 352.958 786.291C351.696 785.028 349.417 783.25 350.427 784.26C351.437 785.27 353.724 787.796 352.208 787.291C350.693 786.786 344.377 783.265 343.115 782.76C341.852 782.255 339.841 780.218 339.083 781.229C338.326 782.239 339.081 784.51 342.365 784.51C345.648 784.51 350.696 787.31 351.958 788.572C353.221 789.835 356.229 792.593 357.24 793.603C358.25 794.614 361.052 796.885 361.052 796.885C361.052 796.885 366.852 793.617 368.115 795.385C369.377 797.152 371.648 798.669 371.396 801.447C371.143 804.225 369.882 806.757 368.115 807.01C366.347 807.262 364.083 807.246 364.083 805.478C364.083 803.711 361.547 797.401 362.052 798.916C362.557 800.431 361.802 804.218 361.802 805.228C361.802 806.239 363.817 806 359.271 807.01C354.725 808.02 353.971 807.486 352.708 806.728C351.446 805.971 349.414 803.476 347.646 803.728C345.878 803.981 340.346 802.945 339.083 803.197C337.821 803.45 330.49 805.478 330.49 805.478L331.74 801.697C331.74 801.697 328.463 805.718 327.958 806.728C327.453 807.739 319.875 810.786 318.865 811.291C317.854 811.796 308.755 815.57 307.24 815.822C305.724 816.075 299.427 820.135 299.427 820.135C299.427 820.135 310.288 815.842 317.865 813.822C325.441 811.802 327.47 809.77 329.49 808.76C331.51 807.749 340.842 803.723 343.115 804.228C345.388 804.733 349.678 808.76 349.678 808.76C349.678 808.76 353.977 809.004 355.24 809.51C356.503 810.015 357.256 811.538 358.771 811.791C360.287 812.043 358.509 817.106 359.771 816.853C361.034 816.601 361.285 812.564 363.053 813.322C364.82 814.08 364.334 815.322 364.334 815.322C364.334 815.322 369.884 813.817 371.146 814.322C372.409 814.827 372.646 816.586 372.646 818.353C372.646 820.121 371.635 822.14 369.615 821.634C367.595 821.129 367.115 816.853 367.115 816.853C367.115 816.853 365.091 818.372 364.334 819.634C363.576 820.897 360.8 821.152 361.053 819.384C361.305 817.617 361.534 816.343 360.271 817.353C359.009 818.363 358.279 818.374 357.521 819.384C356.764 820.395 354.461 821.91 354.209 819.384C353.956 816.859 353.472 811.546 352.209 811.041C350.946 810.536 351.701 811.802 352.459 813.822C353.217 815.842 351.683 822.903 351.178 824.166C350.673 825.429 348.407 829.726 347.397 829.978C347.077 830.058 345.107 830.903 342.74 831.916C343.971 831.454 345.015 831.165 345.647 831.228C348.172 831.481 351.178 833.51 351.178 833.51C351.178 833.51 352.694 837.561 354.209 835.541C355.724 833.52 356.751 832.257 358.771 832.51C360.792 832.762 361.293 833.776 362.303 835.291C362.96 836.277 364.045 837.773 364.584 838.228C363.674 838.852 362.803 839.322 362.803 839.322C362.803 839.322 361.803 837.559 361.803 838.822C361.803 840.085 358.519 841.336 358.771 843.103C359.024 844.871 357.269 847.157 357.521 844.884C357.774 842.612 354.99 836.299 354.99 838.572C354.99 840.845 356.753 844.107 355.49 846.884C354.228 849.662 352.693 854.723 351.178 855.228C349.663 855.733 346.397 858.259 346.397 858.259C346.397 858.259 350.939 859.277 352.959 857.509C354.979 855.742 357.004 853.46 358.772 852.197C360.539 850.934 363.321 851.45 364.584 854.228C365.847 857.006 366.847 859.013 365.584 861.791C364.321 864.569 356.5 874.937 355.49 875.947C354.48 876.957 349.942 881.241 345.396 883.009C341.29 884.606 334.195 891.273 332.802 892.603H336.083C338.75 890.943 341.61 889.324 343.364 888.322C346.9 886.301 352.958 882.009 352.958 882.009C352.958 882.009 355.247 883.518 354.489 885.79C353.732 888.063 350.447 889.325 348.427 892.103C348.316 892.256 348.154 892.44 348.021 892.603H516.611C516.611 892.603 505.478 852.964 503.205 848.165C500.932 843.367 494.384 838.813 492.111 836.54C489.838 834.267 492.358 830.469 492.611 828.196C492.863 825.923 490.837 820.375 490.079 818.102C489.322 815.829 490.582 803.726 490.329 800.696C490.077 797.666 491.108 796.393 491.361 792.352C491.613 788.312 489.827 789.828 490.079 786.04C490.332 782.252 492.343 766.342 494.111 754.978C495.878 743.614 488.811 701.939 487.548 690.322C486.285 678.705 476.686 625.156 475.423 616.822C474.16 608.488 476.183 591.322 475.173 581.978C474.163 572.634 471.894 559.248 468.611 544.853C465.328 530.458 451.439 501.667 449.923 498.384C448.407 495.101 442.853 485.526 437.298 480.728C431.742 475.93 413.83 463.025 398.173 455.197C389.365 450.793 384.055 449.826 381.111 449.822L381.112 449.822ZM298.212 789.262C297.783 789.653 297.396 790.004 297.15 790.324C295.571 792.376 296.461 791.082 298.212 789.262ZM365.118 830.824C365.185 830.847 365.258 830.901 365.337 830.98C366.599 832.243 367.092 835.03 366.587 836.293C366.367 836.843 365.641 837.489 364.868 838.043C364.856 837.964 364.87 837.91 364.837 837.793C364.363 836.135 364.107 830.484 365.118 830.824V830.824ZM340.399 832.918C335.553 835.001 329.949 837.395 329.211 837.543C327.948 837.795 320.385 840.843 318.617 842.105C316.849 843.368 312.572 847.415 310.805 847.668C309.037 847.92 298.93 850.449 298.93 850.449C298.93 850.449 304.74 851.183 308.023 849.668C311.306 848.153 316.091 845.903 315.586 847.418C315.081 848.933 316.599 855.986 318.367 858.512C320.135 861.037 321.151 864.585 320.898 866.606C320.646 868.626 317.117 873.418 317.117 873.418C317.117 873.418 323.917 871.147 325.18 870.137C326.442 869.127 331.242 865.824 331.242 865.824C331.242 865.824 332.515 861.299 330.242 863.824C327.969 866.35 325.18 867.606 325.18 867.606V865.324C325.18 865.324 326.442 862.801 325.18 862.043C323.917 861.286 322.906 861.308 322.148 859.793C321.391 858.278 318.867 856.996 318.867 855.481C318.867 853.965 318.367 852.462 318.367 851.199C318.367 849.937 317.104 847.15 318.367 845.887C319.63 844.624 322.419 842.361 323.43 841.856C324.44 841.351 328.212 839.058 331.242 837.543C333.069 836.63 337.005 834.465 340.398 832.918L340.399 832.918Z" fill="#CE9797"/>
<path d="M132.892 431.292C131.374 432.313 129.251 433.805 128.454 434.761C127.192 436.276 128.971 439.798 130.486 442.323C132.001 444.849 132.491 446.618 131.986 448.386C131.481 450.154 129.454 451.18 129.454 452.948C129.454 454.716 131.738 456.459 131.486 458.48C131.233 460.5 134.012 460.512 134.517 463.542C135.022 466.573 133.769 466.582 130.486 468.855C127.203 471.127 126.923 466.823 126.923 466.823C126.923 466.823 125.557 466.759 123.923 466.698C124.046 466.833 124.111 466.935 124.111 467.011C124.111 467.725 122.673 469.355 122.673 470.605C122.673 471.855 122.861 474.172 124.111 476.136C125.361 478.1 125.905 479.877 125.548 482.198C125.191 484.52 124.468 489.171 124.111 491.136C123.754 493.1 124.28 495.783 125.173 495.605C126.066 495.426 128.57 492.386 128.392 494.886C128.213 497.386 129.12 498.288 128.048 498.823C126.977 499.359 123.405 498.627 124.298 502.198C125.191 505.77 127.673 507.198 127.673 507.198C127.673 507.198 126.986 499.886 129.486 499.886C131.986 499.886 133.923 499.707 133.923 502.386C133.923 505.064 134.664 507.395 133.236 507.573C131.807 507.752 131.071 506.48 130.892 508.98C130.713 511.48 130.196 511.855 130.017 515.605C129.838 519.355 130.727 521.832 131.798 522.011C132.87 522.189 133.945 520.587 133.767 518.98C133.588 517.372 133.231 510.238 135.017 511.667C136.803 513.096 139.28 515.06 137.673 516.667C136.066 518.274 134.28 519.712 133.923 520.605C133.566 521.497 132.137 522.551 132.673 523.98C133.209 525.408 134.294 528.462 134.829 526.855C135.365 525.247 138.236 524.355 138.236 524.355C138.236 524.355 138.95 525.422 138.236 526.136C137.521 526.85 135.195 526.479 135.017 528.98C134.838 531.48 135.017 543.44 133.767 543.261C132.517 543.082 132.517 544.894 131.267 542.573C130.017 540.252 129.994 530.582 128.923 530.761C127.852 530.94 126.628 532.373 124.485 530.23C122.343 528.087 119.102 526.145 118.923 523.824C118.744 521.502 120.557 518.989 119.485 517.917C118.415 516.847 117.335 515.947 117.335 514.697C117.335 513.447 121.635 516.671 121.992 514.885C122.349 513.099 122.335 511.117 121.085 509.51C119.835 507.903 119.3 503.635 121.085 502.385C122.871 501.135 123.594 498.086 122.523 497.729C121.451 497.372 120.715 497.907 118.929 498.979C117.143 500.05 116.809 502.738 116.273 500.416C115.737 498.095 115.893 492.742 113.929 493.635C111.965 494.528 111.635 496.492 111.992 498.635C112.349 500.778 112.349 503.108 110.742 505.072C109.134 507.037 106.626 507.372 108.054 510.229C109.483 513.086 111.978 513.081 112.335 515.76C112.692 518.439 112.349 522.032 113.242 524.354C114.134 526.675 116.255 529.166 115.898 530.416C115.541 531.666 115.375 532.55 116.804 533.979C118.233 535.407 120.728 538.104 119.835 539.354C118.942 540.604 119.648 545.769 114.648 544.697C109.648 543.626 108.755 543.626 107.148 540.947C105.541 538.269 104.661 539.001 103.054 535.072C101.447 531.144 103.572 524.71 103.929 521.853C104.286 518.996 105.023 509.536 105.023 507.572C105.023 505.608 104.831 500.238 105.366 496.666C105.902 493.095 106.072 493.64 106.429 486.854C106.786 480.068 108.929 477.385 110.179 474.885C110.916 473.411 112.169 470.34 113.21 467.697C112.029 467.915 110.793 468.004 109.523 467.822C105.987 467.317 100.928 468.341 97.8976 469.604C94.8671 470.866 80.7276 484.998 78.9596 486.26C77.1918 487.522 67.0976 490.57 65.8346 490.822C64.5719 491.075 52.2016 499.916 49.9286 499.916C49.7287 499.916 49.3426 499.956 48.8974 500.01C46.0451 503.586 44.1054 505.719 43.5849 507.385C42.6921 510.242 40.3661 530.773 41.6161 539.166C42.8661 547.559 49.3081 565.233 51.2723 574.697C53.2366 584.161 61.4463 615.759 63.0533 619.509C64.6604 623.259 70.9104 634.866 71.8033 643.259C72.6962 651.651 77.8747 677.188 80.5533 687.009C83.2319 696.83 89.4863 715.058 91.2723 721.665C93.058 728.272 96.6339 747.911 106.991 765.946C117.348 783.982 126.263 806.125 128.585 810.946C130.907 815.767 140.92 840.062 141.991 844.884C143.063 849.705 147.509 854.714 142.866 853.821C138.224 852.928 130.545 851.652 127.866 850.759C125.188 849.866 127.152 852.732 132.866 854.696C138.581 856.66 147.683 857.214 150.897 857.571C154.112 857.928 158.054 858.094 159.304 857.915C160.554 857.736 160.737 849.156 160.022 848.977C159.308 848.799 158.397 852.736 154.647 852.915C150.897 853.094 149.835 853.107 148.585 851.321C147.335 849.535 144.121 837.544 144.835 835.759C145.549 833.973 148.241 832.746 150.741 833.103C153.241 833.46 157.678 832.572 157.678 832.572C157.678 832.572 155.893 809.532 156.428 800.603C156.964 791.674 160.906 745.246 163.585 731.853C166.263 718.46 174.13 692.371 177.523 677.728C180.916 663.085 186.447 637.929 189.304 618.822C192.161 599.715 196.08 580.411 197.866 570.947C199.652 561.482 202.348 555.416 203.241 549.166C204.134 542.916 203.42 535.769 203.241 534.697C203.063 533.625 202.701 530.411 202.522 525.947C202.344 521.482 203.929 515.947 203.929 515.947L213.929 500.416C213.929 500.416 210.371 499.889 209.835 500.603C209.299 501.317 207.147 504.701 207.147 505.416C207.147 506.13 206.607 508.804 206.429 509.697C206.25 510.59 205.004 513.46 204.647 514.353C204.29 515.246 203.036 515.411 201.429 515.947C199.821 516.483 197.147 518.085 195.897 518.978C194.647 519.871 192.513 520.938 191.085 520.759C189.656 520.581 188.228 519.331 186.085 519.509C183.942 519.688 180.911 520.599 180.554 519.884C180.197 519.17 179.647 513.804 177.147 512.197C174.648 510.59 173.393 509.358 171.429 510.072C169.464 510.786 170.906 511.666 167.335 511.666C163.763 511.666 160.714 511.13 161.429 510.416C162.143 509.701 166.813 508.09 166.991 505.947C167.17 503.804 170.183 499.174 167.147 499.353C164.112 499.532 163.929 501.478 163.929 501.478C163.929 501.478 165.741 502.384 164.491 503.634C163.241 504.884 160.737 505.232 158.772 505.947C156.808 506.661 157.335 504.875 157.335 503.447C157.335 502.018 157.857 497.554 158.929 497.197C160 496.84 163.585 497.018 163.585 494.697C163.585 492.375 163.759 483.09 161.616 482.197C159.473 481.304 156.991 480.603 154.491 480.603C151.991 480.603 148.219 480.777 147.147 479.884C146.076 478.991 141.625 474.884 140.553 472.384C139.482 469.884 138.759 465.965 139.116 465.072C139.473 464.179 140.018 460.058 139.303 459.165C138.589 458.273 136.263 455.947 136.085 454.697C135.906 453.447 139.299 451.482 139.835 453.447C140.37 455.411 140.741 455.424 140.741 456.853C140.741 458.282 141.098 460.241 141.991 461.134C142.884 462.027 144.826 465.406 145.897 462.728C146.968 460.049 146.812 456.295 144.491 455.759C142.169 455.223 142.147 452.009 142.147 452.009C142.147 452.009 141.451 450.777 142.522 448.634C143.594 446.491 142.692 443.281 141.085 440.603C139.477 437.924 137.705 433.107 135.741 432.572C135.067 432.388 133.988 431.867 132.897 431.291L132.892 431.292ZM141.362 498.702C142.009 498.68 142.791 498.907 143.237 499.889C143.237 499.889 141.451 501.849 140.737 501.671C140.023 501.492 140.174 498.983 140.174 498.983C140.174 498.983 140.715 498.724 141.362 498.702V498.702ZM145.956 508.827C146.447 508.805 147.255 508.983 148.237 508.983C148.237 508.983 148.938 508.805 149.831 508.983C150.724 509.162 150.175 511.327 150.175 511.327L147.675 512.577C147.675 512.577 146.085 511.497 145.55 509.89C145.282 509.086 145.465 508.849 145.956 508.827V508.827ZM172.737 527.015C172.874 527.008 173.058 526.993 173.237 527.015C174.665 527.194 174.665 531.327 174.487 532.577C174.308 533.827 172.339 533.109 171.268 531.859C170.197 530.609 171.08 528.984 171.08 527.734H171.799C171.799 527.734 171.78 527.066 172.737 527.015H172.737ZM145.018 528.827C145.018 528.827 147.692 529.537 148.049 530.609C148.406 531.68 146.786 533.631 145.893 533.452C145 533.274 143.946 531.685 145.018 528.827ZM177.862 528.984L180.174 532.39C180.174 532.39 178.223 533.448 177.33 532.734C176.438 532.019 177.505 530.055 177.862 528.984L177.862 528.984ZM201.268 531.484L202.674 533.453L201.08 533.64C201.08 533.64 200.196 532.198 201.268 531.484L201.268 531.484ZM183.928 533.204C184.713 533.178 185.677 533.673 187.147 535.235C187.621 535.31 190.836 534.981 188.928 537.922C189.106 539.887 192.526 540.61 194.49 541.86C196.455 543.11 195.553 544.516 195.553 544.516L195.178 547.922C195.178 547.922 198.062 552.199 199.49 553.985C200.919 555.771 199.66 560.766 199.303 562.016C198.946 563.266 193.932 563.279 193.397 564.172C192.861 565.065 193.053 568.645 191.803 569.36C190.553 570.074 186.097 572.387 184.49 574.172C182.883 575.958 183.053 583.288 181.803 583.11C180.553 582.931 181.437 578.096 181.615 575.954C181.794 573.811 180.919 568.98 180.74 565.766C180.562 562.551 183.58 563.279 185.365 562.922C187.151 562.565 187.142 562.382 186.428 559.703C185.714 557.024 184.133 558.823 184.49 556.859C184.847 554.895 186.432 558.649 187.146 558.828C187.861 559.007 187.347 554.886 188.24 551.672C189.133 548.457 190.365 548.984 191.615 547.734C192.865 546.484 193.392 545.614 192.678 543.828C191.964 542.042 189.303 544.172 188.053 542.922C186.803 541.672 186.437 543.645 185.365 545.609C184.294 547.574 182.513 544.524 179.834 543.453C177.155 542.382 178.035 541.127 177.678 538.984C177.321 536.841 177.772 536.524 180.272 535.453C181.834 534.783 182.619 533.245 183.928 533.203L183.928 533.204ZM141.209 535.61C141.291 535.588 141.349 535.599 141.428 535.61C142.678 535.789 143.941 537.373 144.834 538.266C145.727 539.159 148.231 539.704 148.053 540.954C147.874 542.204 144.834 542.757 144.834 543.829C144.834 544.9 145.191 550.079 144.834 551.329C144.477 552.579 143.927 554.704 143.927 554.704C143.927 554.704 148.213 549.177 148.927 548.641C149.642 548.105 149.66 543.829 150.552 543.829C151.445 543.829 152.503 545.409 152.146 547.016C151.789 548.623 149.843 549.172 151.271 550.422C152.7 551.672 155.736 554.9 156.271 556.329C156.807 557.757 156.803 562.391 156.803 562.391C156.803 562.391 158.597 557.204 159.49 555.954C160.383 554.704 161.079 553.101 161.615 551.672C162.151 550.244 163.749 550.779 163.928 551.672C164.106 552.565 164.49 553.266 164.49 553.266C163.776 554.338 164.481 556.503 165.553 558.11C166.624 559.717 167.691 563.097 167.334 564.704C166.977 566.311 165.539 570.972 164.646 571.329C163.753 571.686 164.106 575.061 162.677 574.704C161.249 574.347 160.177 573.628 160.177 572.735C160.177 571.842 158.222 568.449 157.865 567.735C157.508 567.021 157.347 565.605 156.99 564.891C156.633 564.177 155.535 564.53 155.177 565.422C154.82 566.315 151.615 568.266 151.615 568.266C151.615 568.266 153.762 571.838 152.334 572.016C150.905 572.195 147.521 572.748 147.521 571.141C147.521 569.534 148.749 569.722 148.927 568.829C149.106 567.936 149.651 567.744 147.865 565.423C146.079 563.101 144.481 561.485 144.302 558.985C144.124 556.485 145.909 555.244 144.302 555.423C142.695 555.601 139.49 556.32 139.49 557.391C139.49 558.463 140.722 562.043 139.115 561.329C137.508 560.614 138.24 558.807 136.99 557.735C135.74 556.664 131.976 555.592 131.084 552.735C130.191 549.878 131.963 545.248 132.677 544.891C133.392 544.534 136.628 541.503 137.521 540.61C138.358 539.773 139.979 535.937 141.209 535.61V535.61ZM163.459 535.704C163.953 535.737 164.055 539.262 164.49 540.422C165.026 541.851 166.075 545.239 164.646 547.204C163.218 549.168 162.682 546.123 162.146 544.516C161.611 542.909 163.044 541.663 160.365 541.485C157.686 541.306 160.017 540.409 159.303 538.266L161.271 539.704C161.271 539.704 162.16 538.65 163.053 536.329C163.22 535.893 163.345 535.696 163.459 535.704ZM198.771 538.454C198.771 538.454 201.431 540.065 202.146 540.422C202.86 540.78 202.507 543.101 201.615 544.172C200.722 545.244 198.757 544.525 197.865 543.454C196.972 542.382 198.057 539.704 198.771 538.454V538.454ZM170.021 542.204L170.74 542.579C170.551 542.602 170.341 542.598 170.146 542.61C170.455 543.478 171.253 545.979 170.365 547.016C169.293 548.266 168.588 547.025 168.052 544.704C167.587 542.688 168.864 542.691 170.146 542.61C170.086 542.43 170.026 542.2 170.026 542.2L170.021 542.204ZM175.427 547.829C176.052 547.829 176.797 548.101 177.333 549.172C178.405 551.315 175.186 551.329 174.114 551.329C173.043 551.329 174.123 550.074 174.302 548.11C174.302 548.11 174.802 547.829 175.427 547.829L175.427 547.829ZM117.052 550.86C117.989 550.838 118.927 550.954 118.927 550.954C118.927 550.954 120.378 554.721 120.021 556.329L118.771 557.735C118.771 557.735 116.972 557.029 116.615 555.422C116.257 553.815 115.177 552.922 115.177 551.672C115.177 551.047 116.115 550.882 117.052 550.86L117.052 550.86ZM173.582 553.83C173.582 553.83 175.024 553.808 175.738 555.236C176.452 556.665 177.149 556.848 176.613 559.705C176.077 562.562 178.051 560.25 178.051 562.392C178.051 564.535 179.475 568.825 178.582 570.611C177.689 572.397 176.247 575.071 175.176 576.142C174.104 577.214 175.198 579.718 172.52 581.861C169.841 584.004 171.439 581.317 171.082 580.424C170.725 579.531 171.095 580.067 170.738 577.924C170.381 575.781 171.082 574.718 171.082 573.111C171.082 571.504 171.086 567.937 170.551 565.08C170.015 562.223 171.796 561.848 172.332 560.955C172.868 560.062 174.131 559.517 174.488 558.267C174.845 557.017 172.863 555.611 172.863 555.611L173.583 553.831L173.582 553.83ZM126.27 572.392C127.159 572.345 127.971 572.508 128.239 573.111C128.953 574.718 129.283 574.879 130.176 576.486C131.069 578.093 132.703 580.767 131.989 582.017C131.275 583.267 128.77 585.057 127.52 586.486C126.27 587.914 121.435 588.999 120.364 587.392C119.292 585.785 117.694 582.378 118.051 580.236C118.408 578.093 120.359 575.057 122.145 572.736L123.051 573.111C123.051 573.111 124.788 572.47 126.27 572.392H126.27ZM138.77 578.642C138.77 578.642 136.605 582.923 136.426 584.173C136.248 585.423 133.953 582.195 134.489 579.517L135.739 579.361L138.77 578.642H138.77ZM105.958 580.673C106.064 580.66 106.164 580.67 106.271 580.673C107.363 580.701 108.424 581.472 108.927 581.673C108.927 581.673 111.971 587.392 111.614 588.642C111.257 589.892 108.587 594.901 106.802 596.329C105.016 597.758 104.123 595.593 103.052 592.736C101.98 589.878 102.498 585.972 103.927 582.58C104.474 581.281 105.214 580.764 105.958 580.673L105.958 580.673ZM142.864 583.267C142.864 583.267 145.904 584.539 147.333 585.611C148.761 586.682 148.221 594.874 147.864 597.017C147.507 599.159 145.002 603.624 143.395 605.767C141.788 607.909 139.11 603.289 138.395 600.61C137.681 597.932 138.949 597.374 140.02 595.767C141.092 594.159 141.806 589.901 141.27 587.579C140.735 585.258 141.614 584.338 142.864 583.267L142.864 583.267ZM131.989 585.861C132.525 585.743 133.449 586.986 133.583 587.923C133.761 589.173 133.579 593.111 132.864 595.611C132.15 598.111 130.913 597.03 128.77 596.673C126.627 596.316 128.774 593.445 129.489 590.767C129.489 590.767 131.435 588.093 131.614 586.486C131.659 586.084 131.81 585.9 131.989 585.861V585.861ZM163.769 589.971C164.561 589.98 165.336 590.105 165.738 590.439C166.809 591.332 164.827 593.297 164.113 594.189C163.399 595.082 161.809 593.283 160.738 592.033C159.666 590.783 160.546 591.502 161.082 590.252C161.082 590.252 161.961 590.069 162.988 590.002C163.244 589.985 163.505 589.968 163.769 589.971V589.971ZM154.831 590.439L155.363 592.752C155.363 592.752 153.05 592.926 153.05 590.783L154.83 590.443L154.831 590.439ZM154.113 600.627C155.023 600.627 155.997 600.886 156.8 601.69C158.943 603.833 160.555 604.739 161.269 606.346C161.983 607.953 158.582 612.587 157.332 614.909C156.082 617.23 159.649 614.905 161.613 614.19C163.577 613.476 166.613 617.221 166.613 617.221C166.613 617.221 168.416 613.484 169.488 611.877C170.559 610.27 164.479 610.266 164.3 608.658C164.122 607.051 167.157 604.181 169.3 602.752C171.443 601.324 173.765 608.846 174.3 610.096C174.836 611.346 176.782 608.65 178.925 605.971C181.068 603.292 182.34 606.685 182.519 608.471C182.698 610.257 179.309 613.123 178.238 614.909C177.166 616.694 176.095 625.088 174.488 626.159C172.881 627.23 167.68 623.641 165.894 622.034C164.108 620.426 161.988 620.266 159.488 619.909C156.988 619.551 159.305 624.721 158.769 625.971C158.233 627.221 154.666 627.596 153.238 626.346C151.809 625.096 154.296 622.221 153.582 619.721C152.867 617.221 150.006 626.159 149.113 624.909C148.22 623.659 149.466 621.855 149.644 618.284C149.823 614.712 147.881 611.328 148.238 608.471C148.595 605.614 149.483 604.56 151.269 601.346C151.269 601.346 152.596 600.627 154.113 600.627L154.113 600.627ZM132.925 605.471C133.787 605.329 134.827 606.154 135.362 606.69C136.077 607.404 135.362 617.395 135.362 619.002C135.362 620.609 131.447 624.542 130.018 624.721C128.59 624.899 125.724 625.27 127.331 623.127C128.938 620.984 127.867 620.27 127.331 616.877C126.795 613.484 128.398 610.618 129.112 607.939C129.112 607.939 131.251 607.221 132.143 605.971C132.367 605.658 132.637 605.518 132.925 605.471L132.925 605.471ZM121.925 617.377C122.639 617.355 123.402 617.502 123.581 618.127C123.938 619.377 123.934 621.149 121.612 620.971C119.291 620.792 120.371 620.096 120.55 617.596C120.55 617.596 121.21 617.4 121.925 617.377L121.925 617.377ZM163.05 626.346C163.764 626.346 166.077 629.73 166.612 632.408C167.148 635.087 164.487 641.141 163.237 643.283C161.987 645.426 159.661 639.908 158.768 637.408C157.876 634.908 159.103 631.694 160.175 628.658C160.175 628.658 162.335 626.346 163.05 626.346H163.05ZM151.27 649.716C151.984 649.716 153.408 653.287 151.801 654.716C150.194 656.145 149.292 658.278 149.113 657.028C148.935 655.778 149.117 654.542 148.582 652.935C148.582 652.935 150.555 649.716 151.27 649.716V649.716ZM161.395 658.591C162.286 658.59 162.864 659.95 162.864 660.966C162.864 662.216 161.966 664.707 159.645 664.528C157.323 664.35 157.154 662.412 157.332 660.091C157.332 660.091 159.488 659.734 160.738 658.841C160.973 658.674 161.189 658.591 161.395 658.591H161.395Z" fill="#CE9797"/>
<path d="M270.492 856.322C270.107 856.255 269.76 856.483 269.492 857.197C268.421 860.054 268.764 859.71 267.336 861.853C265.907 863.996 262.349 863.974 261.992 868.259C261.635 872.545 261.635 874.697 256.992 879.697C252.349 884.697 245.202 884.001 241.273 885.072C237.344 886.144 233.76 883.635 234.117 888.635C234.189 889.642 234.214 891.059 234.211 892.604H291.211C289.212 890.941 287.71 890.789 286.992 889.354C285.92 887.211 283.054 881.854 283.054 881.854C283.054 881.854 278.036 878.26 277.679 873.26C277.322 868.26 273.054 859.354 273.054 859.354C273.054 859.354 271.647 856.524 270.492 856.323L270.492 856.322Z" fill="#CE9797"/>
<path d="M375.022 420.642C374.827 420.99 374.79 421.306 374.928 421.767C375.196 422.66 377.08 423.816 377.616 424.173C378.152 424.53 455.647 461.142 455.647 461.142L455.803 463.017L375.272 426.392C375.272 426.392 375.415 427.384 375.741 428.236L408.429 443.986C428.339 453.053 450.236 462.923 452.054 463.267C455.357 463.892 457.514 466.321 457.96 466.767C458.406 467.213 461.808 468.454 462.522 468.454C463.237 468.454 464.755 470.254 465.647 470.611C466.124 470.801 505.05 490.078 543.522 509.173L607.022 539.829L607.085 536.516L465.555 467.735L464.118 467.579L463.899 465.985C464.458 466.314 465.006 466.6 465.368 466.673C466.26 466.851 469.466 467.199 470.18 467.735C470.844 468.233 589.26 525.085 607.15 533.673L607.244 529.673C596.346 524.431 468.244 463.985 468.244 463.985L466.088 464.516L464.838 464.891C464.838 464.891 463.872 464.489 463.556 464.11C463.241 463.731 462.782 462.519 462.056 462.235C461.33 461.951 460.873 461.797 460.494 461.829C460.115 461.86 458.751 462.643 458.088 462.454C457.425 462.264 456.901 462.021 456.775 461.579C456.649 461.137 456.496 460.114 456.244 459.735C455.994 459.355 376.904 422.205 376.904 422.205C376.904 422.205 376.682 421.742 376.498 421.33L375.029 420.643L375.022 420.642ZM459.897 464.423C460.734 464.364 461.267 464.436 461.803 464.704C462.109 464.857 462.658 465.216 463.241 465.579C462.902 465.948 462.452 466.329 461.991 466.329C461.098 466.329 459.303 465.235 459.303 465.235C459.303 465.235 457.5 464.695 458.928 464.517C459.285 464.472 459.618 464.443 459.897 464.423H459.897Z" fill="#CE9797"/>
<path d="M158.772 833.642L157.678 844.361C157.678 844.361 162.687 873.285 164.116 878.642C165.033 882.082 168.058 888.376 170.178 892.611H171.272C170.943 891.546 170.553 890.58 170.178 890.08C169.107 888.651 164.107 870.768 162.678 865.768C161.25 860.768 161.272 847.572 158.772 833.643V833.642Z" fill="#CE9797"/>
</svg>
